<?xml version="1.0" encoding="UTF-8" standalone="no"?>
<!DOCTYPE svg PUBLIC "-//W3C//DTD SVG 1.1//EN" "http://www.w3.org/Graphics/SVG/1.1/DTD/svg11.dtd">
<svg xmlns="http://www.w3.org/2000/svg" version="1.1" viewBox="0.00 0.00 626.00 741.00" width="170" height="229">
<g stroke-width="2.00" fill="none" stroke-linecap="butt">
<path stroke="#763028" vector-effect="non-scaling-stroke" d="
  M 210.78 157.90
  C 215.55 138.65 227.65 123.01 245.12 113.48
  Q 259.77 105.49 278.33 104.98
  C 283.36 104.84 288.48 105.74 293.51 105.73
  Q 337.58 105.72 382.34 105.76
  C 383.86 105.76 385.38 106.07 386.92 106.06
  Q 387.55 106.06 387.48 105.44
  Q 387.31 103.89 386.19 102.27
  Q 358.10 61.33 311.21 48.51
  C 291.50 43.12 270.63 42.97 250.50 47.48
  C 219.76 54.36 192.34 72.70 173.76 98.32
  Q 172.90 99.50 173.64 100.74
  Q 189.28 127.06 205.94 155.08
  Q 207.27 157.31 209.41 158.50
  A 0.95 0.94 -68.5 0 0 210.78 157.90"
/>
<path stroke="#305f2f" vector-effect="non-scaling-stroke" d="
  M 162.55 116.88
  C 156.76 126.96 152.96 138.96 150.39 150.28
  Q 148.73 157.56 148.38 165.26
  Q 148.03 172.90 147.33 180.75
  A 0.69 0.69 0.0 0 0 148.29 181.44
  Q 156.88 177.72 165.99 176.32
  C 169.46 175.80 172.90 176.07 176.36 175.97
  C 184.76 175.74 193.52 178.11 201.05 181.78
  Q 202.76 182.62 201.77 180.98
  L 162.87 116.87
  A 0.19 0.18 -45.9 0 0 162.55 116.88"
/>
<path stroke="#1a4863" vector-effect="non-scaling-stroke" d="
  M 234.18 149.69
  C 229.26 158.26 227.18 170.33 228.11 180.01
  Q 230.06 200.54 245.23 214.16
  A 1.45 1.45 0.0 0 0 246.81 214.40
  Q 263.58 206.47 281.84 210.24
  Q 294.39 212.84 301.22 219.61
  C 302.78 221.17 304.67 220.82 306.34 219.70
  Q 325.88 206.52 329.90 184.10
  C 331.46 175.45 330.73 166.08 327.36 157.86
  Q 325.03 152.20 323.34 149.32
  C 313.42 132.39 295.41 122.24 275.76 123.49
  C 258.08 124.62 243.09 134.20 234.18 149.69"
/>
<path stroke="#7e6c18" vector-effect="non-scaling-stroke" d="
  M 392.39 188.85
  C 394.69 191.27 397.79 191.55 400.44 193.71
  Q 404.55 197.04 408.18 200.40
  Q 408.76 200.95 408.89 200.16
  Q 412.18 180.42 409.09 161.94
  C 406.97 149.28 404.08 137.87 399.34 126.48
  C 398.50 124.46 396.91 123.46 394.80 123.46
  Q 366.55 123.40 330.06 123.48
  A 1.39 1.38 24.3 0 0 329.15 123.82
  Q 328.17 124.68 328.97 125.50
  Q 342.11 138.97 346.57 156.48
  C 347.72 160.99 349.10 165.41 349.05 170.15
  Q 348.98 176.78 349.02 183.26
  Q 349.02 183.96 348.69 184.57
  Q 347.63 186.51 347.15 188.51
  Q 346.94 189.37 347.70 188.91
  Q 353.12 185.67 362.86 185.09
  C 369.76 184.68 377.26 183.95 383.53 186.16
  Q 387.21 187.46 390.95 188.08
  Q 391.80 188.22 392.39 188.85"
/>
<path stroke="#80807f" vector-effect="non-scaling-stroke" d="
  M 328.31 303.99
  Q 328.91 309.98 327.06 304.26
  Q 319.55 280.97 312.33 258.97
  Q 308.05 245.92 305.24 241.62
  C 291.18 220.17 262.94 215.44 242.83 231.56
  C 235.80 237.20 232.14 243.97 228.90 252.63
  Q 228.45 253.82 228.31 255.06
  A 1.73 1.72 -82.3 0 1 226.32 256.58
  L 215.72 254.91
  Q 213.93 254.63 214.58 252.94
  C 217.69 244.91 220.20 235.52 218.96 227.16
  Q 215.95 206.82 200.33 195.87
  C 186.09 185.89 167.43 185.17 152.15 194.19
  Q 138.65 202.17 132.88 217.90
  C 131.56 221.50 131.12 225.24 130.35 228.95
  A 0.93 0.93 0.0 0 1 129.45 229.69
  Q 126.80 229.73 124.28 229.86
  C 110.07 230.57 97.20 240.37 92.92 254.06
  Q 87.86 270.20 96.94 284.19
  Q 104.11 295.23 117.44 298.90
  C 121.67 300.07 125.90 299.78 130.11 301.19
  Q 150.45 307.97 179.28 313.53
  Q 244.11 326.01 306.30 324.22
  Q 310.57 324.10 314.56 324.28
  A 1.55 1.54 82.7 0 1 315.96 325.37
  C 323.40 349.48 350.03 361.07 372.26 349.25
  Q 387.81 340.98 392.35 323.23
  C 393.03 320.60 393.06 317.88 393.07 315.19
  A 1.47 1.46 82.9 0 1 394.17 313.77
  Q 413.03 308.97 432.02 302.31
  C 436.59 300.71 440.55 298.08 445.45 297.81
  C 456.04 297.22 465.26 292.77 471.71 284.65
  C 482.34 271.27 482.11 253.40 471.20 240.17
  C 462.35 229.44 447.61 224.83 434.12 229.19
  C 430.03 230.51 426.39 232.55 422.27 233.61
  Q 419.51 234.32 416.83 235.03
  Q 414.80 235.57 414.25 233.56
  Q 406.93 206.98 382.30 199.19
  C 354.94 190.53 326.64 208.88 322.73 237.51
  Q 321.96 243.17 323.50 257.45
  Q 325.91 279.82 328.31 303.99"
/>
<path stroke="#7b5918" vector-effect="non-scaling-stroke" d="
  M 400.09 340.35
  Q 397.42 343.99 395.04 347.08
  Q 387.35 357.08 376.06 362.22
  Q 357.19 370.81 338.38 364.79
  Q 317.50 358.10 306.82 338.07
  Q 306.59 337.64 306.10 337.64
  Q 270.71 338.06 261.01 337.20
  Q 243.42 335.63 225.72 334.15"
/>
<path stroke="#7e6f4a" vector-effect="non-scaling-stroke" d="
  M 225.72 334.15
  L 194.05 329.74"
/>
<path stroke="#7b5918" vector-effect="non-scaling-stroke" d="
  M 194.05 329.74
  L 164.79 324.05"
/>
<path stroke="#80807f" vector-effect="non-scaling-stroke" d="
  M 164.79 324.05
  Q 146.29 320.13 140.48 318.27
  Q 134.50 316.36 128.42 314.42
  Q 127.95 314.26 127.91 314.76
  Q 124.05 368.13 120.60 421.52
  Q 119.96 431.47 119.22 441.47
  Q 115.90 486.56 111.93 545.74
  Q 107.60 610.19 102.64 680.00
  Q 102.45 682.57 102.89 685.01
  Q 102.98 685.51 103.44 685.71
  Q 114.68 690.39 126.34 693.89
  Q 170.81 707.25 217.01 712.17
  Q 234.77 714.06 244.50 714.56
  Q 255.44 715.12 260.00 715.52
  Q 266.52 716.10 305.16 715.58
  C 308.98 715.52 312.70 714.88 316.50 714.82
  C 325.28 714.69 334.48 713.53 342.96 712.60
  Q 386.00 707.89 427.27 694.52
  C 439.81 690.46 451.90 685.33 463.58 679.99
  A 2.09 2.08 -14.7 0 0 464.79 677.94
  L 459.63 611.23
  Q 459.55 610.15 460.63 610.20
  Q 496.36 611.82 528.37 600.83
  Q 533.88 598.94 538.50 596.54
  C 549.04 591.05 559.02 583.92 558.70 570.47
  C 557.84 534.77 554.25 498.75 549.88 461.51
  Q 544.59 416.34 539.06 369.83
  Q 538.31 363.57 537.11 360.12
  C 530.16 340.13 500.31 341.34 483.50 342.62
  Q 464.63 344.06 440.70 346.45
  Q 439.11 346.61 439.00 345.01
  L 436.83 315.70
  A 0.88 0.88 0.0 0 0 435.64 314.94
  Q 422.38 319.99 408.14 323.56
  C 406.51 323.97 405.53 324.63 405.09 326.38
  Q 403.21 333.80 400.09 340.35"
/>
<path stroke="#fad997" vector-effect="non-scaling-stroke" d="
  M 164.79 324.05
  Q 163.02 353.45 160.88 382.43
  Q 160.26 390.87 159.85 399.08
  Q 159.43 407.48 158.73 415.72
  Q 157.64 428.66 156.97 444.05
  C 156.74 449.32 156.03 454.56 155.67 459.75
  Q 152.49 505.36 150.07 543.51
  Q 148.21 572.71 145.78 605.77
  Q 145.38 611.14 145.15 616.48
  C 144.87 623.05 143.88 629.55 143.63 636.32
  Q 143.44 641.14 142.84 645.41
  Q 142.57 647.38 144.36 648.25
  Q 153.12 652.47 162.69 655.40
  C 174.52 659.02 186.05 662.39 197.98 664.71
  Q 222.12 669.38 243.83 671.49
  Q 273.14 674.34 304.49 672.76
  Q 334.29 671.26 364.60 664.48
  C 376.04 661.92 388.32 658.18 399.30 654.11
  Q 408.90 650.55 420.94 644.58
  C 422.27 643.92 424.23 642.61 424.18 641.00
  Q 424.00 634.31 423.01 627.38
  Q 422.48 623.72 422.40 620.21
  C 422.27 614.06 421.18 607.96 420.93 601.99
  C 420.66 595.08 419.48 588.04 419.35 581.15
  Q 419.25 576.12 418.58 570.94
  C 417.84 565.14 418.12 559.35 417.31 553.56
  C 416.53 547.93 416.70 541.99 415.96 536.24
  Q 415.19 530.28 415.01 523.07
  C 414.91 518.81 413.85 514.66 413.70 510.39
  Q 413.47 503.73 412.63 497.18
  C 412.00 492.25 412.19 487.26 411.63 482.31
  C 410.75 474.51 410.58 467.04 409.67 459.40
  C 409.09 454.52 409.36 449.66 408.77 444.72
  Q 408.13 439.27 407.82 433.74
  C 407.49 427.84 406.55 421.69 406.42 415.67
  Q 406.34 411.68 405.88 408.00
  C 404.91 400.09 404.59 392.12 403.66 384.27
  C 403.11 379.56 403.37 374.84 402.76 370.21
  Q 402.10 365.15 401.81 359.73
  Q 401.30 350.13 400.09 340.35"
/>
<path stroke="#f8c862" vector-effect="non-scaling-stroke" d="
  M 194.05 329.74
  Q 194.11 338.05 193.66 342.00
  C 192.57 351.65 192.10 363.90 191.58 370.99
  Q 188.66 410.61 186.33 450.77
  C 185.51 464.98 184.26 480.08 183.38 494.78
  Q 182.82 504.16 181.99 514.73
  Q 181.02 527.18 180.29 539.65
  C 179.56 552.32 178.44 566.11 177.86 579.03
  C 177.43 588.69 176.31 598.11 176.11 607.89
  A 1.09 1.08 -84.1 0 0 176.99 608.98
  Q 179.91 609.53 182.65 609.61
  Q 194.93 610.00 206.47 611.17
  A 1.57 1.56 -84.6 0 0 208.18 609.75
  Q 209.27 597.29 210.00 585.51
  Q 210.20 582.30 210.43 579.00
  Q 213.58 534.23 216.23 490.48
  Q 216.84 480.46 217.54 470.52
  Q 222.21 404.42 225.99 342.75
  Q 226.16 339.96 226.05 338.27
  Q 226.02 337.77 226.17 337.30
  Q 226.64 335.83 225.72 334.15"
/>
<path stroke="#80807f" vector-effect="non-scaling-stroke" d="
  M 497.77 375.57
  Q 486.85 371.72 477.54 372.79
  Q 460.07 374.79 442.41 377.91
  A 1.11 1.11 0.0 0 0 441.50 379.12
  Q 441.64 380.41 441.77 381.77
  Q 444.22 407.67 446.55 442.04
  Q 447.25 452.41 448.02 461.98
  Q 452.48 517.88 457.04 578.42
  A 0.36 0.36 0.0 0 0 457.42 578.75
  C 472.76 577.84 487.84 575.57 502.36 571.83
  Q 511.45 569.50 520.16 564.39
  Q 527.49 560.09 528.87 552.97
  Q 529.34 550.60 528.44 539.63
  Q 526.31 513.65 522.94 483.78
  Q 518.47 444.14 513.50 400.69
  Q 512.42 391.23 510.50 387.36
  Q 506.11 378.52 497.77 375.57"
/>
<path stroke="#7b5918" vector-effect="non-scaling-stroke" d="
  M 377.99 407.92
  A 31.24 31.24 0.0 0 0 346.75 376.68
  A 31.24 31.24 0.0 0 0 315.51 407.92
  A 31.24 31.24 0.0 0 0 346.75 439.16
  A 31.24 31.24 0.0 0 0 377.99 407.92"
/>
<path stroke="#80807f" vector-effect="non-scaling-stroke" d="
  M 364.81 407.92
  A 18.06 18.06 0.0 0 0 346.75 389.86
  A 18.06 18.06 0.0 0 0 328.69 407.92
  A 18.06 18.06 0.0 0 0 346.75 425.98
  A 18.06 18.06 0.0 0 0 364.81 407.92"
/>
</g>
<path fill="#000000" d="
  M 434.15 218.66
  C 436.56 217.11 439.78 215.88 442.71 215.97
  C 445.78 216.06 449.00 215.61 451.94 216.48
  C 455.15 217.43 458.12 217.82 461.20 219.37
  C 463.68 220.61 466.25 221.13 468.71 222.53
  Q 482.50 230.41 487.32 244.68
  C 488.53 248.27 490.99 251.24 490.98 255.06
  Q 490.98 261.07 491.04 269.09
  Q 491.06 271.03 490.56 272.72
  C 490.09 274.33 489.87 276.07 489.14 277.56
  Q 486.63 282.66 483.93 288.10
  Q 482.45 291.11 479.98 293.51
  C 475.83 297.54 472.33 301.69 466.77 303.87
  Q 458.96 306.94 451.42 310.26
  C 448.39 311.59 449.28 313.96 448.31 316.40
  Q 448.08 316.97 448.28 317.56
  C 448.61 318.49 448.99 319.29 449.01 320.32
  C 449.07 323.38 448.17 328.67 450.12 331.25
  C 454.57 337.14 461.09 331.95 466.56 331.98
  Q 471.49 332.02 476.42 332.00
  C 478.28 331.99 479.80 331.03 481.62 331.02
  Q 494.72 331.01 508.07 330.98
  Q 510.27 330.98 512.39 331.62
  C 514.51 332.27 516.61 331.80 518.81 332.40
  Q 526.26 334.45 533.74 338.37
  Q 536.43 339.78 538.53 342.06
  C 540.52 344.23 542.93 346.05 544.30 348.71
  C 546.64 353.25 549.60 358.23 549.90 363.47
  C 550.07 366.35 551.23 368.75 551.00 371.66
  Q 550.77 374.59 551.51 377.12
  Q 552.06 378.98 552.02 381.02
  C 551.97 383.18 552.95 384.83 552.93 387.04
  Q 552.85 395.42 555.22 403.40
  Q 556.08 406.30 555.97 408.40
  Q 555.82 411.41 556.51 414.11
  Q 557.17 416.70 557.00 419.24
  C 556.83 421.77 557.95 424.00 557.98 426.53
  C 558.02 430.01 557.71 433.42 558.65 436.86
  C 559.30 439.22 558.70 441.51 559.42 443.94
  C 560.34 447.02 559.74 450.24 560.47 453.35
  Q 561.73 458.77 561.99 464.42
  Q 562.17 468.24 562.95 470.96
  Q 564.12 474.98 564.02 478.88
  Q 563.95 481.39 564.67 484.05
  C 565.34 486.50 564.69 488.99 565.33 491.54
  Q 566.32 495.44 565.97 500.40
  C 565.76 503.30 566.98 505.72 566.99 508.54
  Q 567.01 513.44 566.98 518.61
  C 566.97 520.90 567.94 522.70 567.97 524.86
  Q 568.02 529.75 567.98 534.65
  C 567.96 536.91 569.10 538.86 568.97 540.99
  C 568.78 544.26 569.92 546.91 570.01 550.05
  C 570.08 552.35 571.02 554.31 571.00 556.63
  Q 570.95 564.22 571.03 571.97
  Q 571.06 574.09 570.46 576.05
  C 569.89 577.93 570.08 579.82 569.18 581.54
  Q 567.49 584.75 566.04 588.26
  C 564.65 591.62 561.43 593.61 559.32 596.53
  Q 558.10 598.24 556.17 599.37
  Q 552.52 601.52 549.13 604.02
  Q 545.52 606.69 540.38 608.31
  C 535.76 609.77 531.89 612.49 527.31 613.89
  Q 516.54 617.17 502.86 619.37
  Q 498.99 619.99 496.42 619.96
  C 494.01 619.92 491.84 621.20 489.46 620.98
  C 486.46 620.70 484.24 621.93 481.32 622.08
  Q 476.64 622.32 473.78 625.43
  C 471.73 627.67 474.06 631.79 474.03 634.58
  Q 473.97 639.02 473.97 643.31
  C 473.97 645.78 474.96 647.85 474.98 650.24
  Q 475.02 655.96 474.99 661.87
  C 474.97 664.10 475.97 665.96 475.98 668.16
  Q 476.00 673.50 476.00 678.85
  Q 476.00 680.41 476.48 682.09
  Q 477.22 684.65 474.31 687.14
  C 469.76 691.05 463.69 692.22 458.62 695.02
  C 451.61 698.90 444.03 700.36 436.78 703.51
  Q 428.27 707.21 418.16 709.54
  Q 414.94 710.28 411.85 711.36
  C 409.03 712.35 406.02 712.83 403.15 713.75
  Q 396.78 715.79 390.28 717.64
  Q 388.92 718.03 387.67 717.98
  C 384.94 717.86 383.64 720.41 381.18 720.05
  Q 378.90 719.72 376.75 720.39
  C 372.37 721.74 367.60 720.49 363.06 721.42
  C 359.06 722.23 354.82 722.68 350.78 723.54
  C 347.29 724.28 343.91 723.56 340.58 724.56
  C 338.06 725.32 335.53 724.60 332.96 725.43
  Q 328.62 726.82 324.51 725.27
  C 322.00 724.32 320.34 726.25 317.89 726.02
  C 314.20 725.67 311.38 726.93 307.83 726.97
  Q 300.91 727.04 294.41 726.94
  C 292.07 726.91 290.04 725.98 287.75 725.99
  Q 259.14 726.03 228.05 725.98
  Q 225.77 725.98 223.67 725.36
  C 221.52 724.73 219.46 725.22 217.26 724.54
  Q 215.08 723.88 212.66 723.99
  C 210.40 724.10 208.44 722.88 206.36 723.01
  C 203.01 723.22 200.20 721.96 196.95 722.02
  C 194.08 722.07 191.74 720.77 188.87 720.99
  Q 185.63 721.25 182.77 720.41
  C 180.67 719.79 178.56 720.06 176.40 719.95
  Q 175.88 719.93 175.50 719.58
  C 173.50 717.76 170.89 718.11 168.42 717.30
  Q 159.22 714.28 151.48 712.78
  Q 145.61 711.65 139.57 709.79
  C 133.06 707.79 126.13 706.61 119.78 704.02
  Q 116.09 702.51 111.54 701.23
  Q 102.00 698.53 92.29 693.62
  A 2.40 2.40 0.0 0 1 90.97 691.46
  Q 91.01 684.62 91.00 677.20
  C 91.00 674.94 92.18 673.00 92.00 670.77
  Q 91.69 666.92 92.40 663.91
  Q 93.09 660.98 93.04 658.19
  Q 92.92 652.55 93.09 646.73
  C 93.15 644.75 93.98 643.04 93.98 641.03
  Q 93.98 634.26 94.03 627.48
  C 94.05 625.48 95.12 623.41 95.01 621.62
  Q 94.69 616.41 96.18 611.45
  Q 97.04 608.59 97.02 605.68
  Q 96.97 599.50 97.03 593.32
  C 97.05 591.14 97.99 589.28 97.99 587.12
  Q 97.99 580.78 98.01 574.26
  C 98.01 572.25 99.01 570.60 99.00 568.70
  Q 98.98 561.95 99.03 555.46
  C 99.04 552.41 100.03 549.65 100.09 546.60
  C 100.13 544.85 101.12 543.12 101.00 541.44
  Q 100.75 538.07 101.38 535.03
  C 102.47 529.74 102.00 523.90 102.01 518.54
  C 102.02 516.38 103.01 514.64 103.01 512.64
  Q 103.01 506.47 103.01 500.49
  C 103.01 497.69 103.69 495.33 104.61 492.76
  Q 105.13 491.28 105.02 489.83
  Q 104.71 485.72 105.37 482.08
  C 106.39 476.49 105.96 470.95 106.02 465.31
  C 106.04 463.31 107.01 461.63 107.00 459.74
  Q 106.99 453.48 107.02 447.32
  C 107.03 445.13 107.99 443.28 107.99 441.11
  Q 107.99 433.80 108.01 426.25
  C 108.01 424.27 109.01 422.63 109.00 420.76
  Q 109.00 415.04 109.00 409.15
  C 109.00 406.17 110.16 403.63 110.02 400.62
  C 109.93 398.39 111.13 396.36 111.00 394.27
  Q 110.74 390.28 111.43 386.80
  C 112.24 382.66 111.96 378.56 112.04 374.37
  C 112.08 372.14 113.16 370.13 113.00 368.01
  Q 112.77 364.84 113.37 362.04
  C 114.37 357.40 114.00 352.37 114.03 347.72
  C 114.04 345.24 115.22 343.04 115.03 340.66
  Q 114.69 336.45 115.38 333.05
  Q 116.06 329.71 116.04 326.49
  C 116.01 321.80 116.63 316.85 114.71 312.44
  C 113.61 309.91 111.45 310.32 109.46 309.13
  C 103.05 305.27 96.78 303.05 91.69 296.83
  Q 87.12 291.24 85.34 287.37
  Q 83.92 284.29 82.37 280.81
  C 80.68 276.99 80.15 273.19 79.30 269.16
  C 78.23 264.04 79.75 259.34 80.61 254.32
  Q 81.17 251.06 82.62 247.72
  Q 85.55 240.95 90.16 234.86
  Q 92.22 232.14 94.75 230.43
  C 97.30 228.70 99.02 225.88 101.94 224.64
  Q 108.07 222.05 113.24 220.08
  Q 115.00 219.41 116.68 218.41
  C 119.60 216.68 121.59 215.93 122.96 212.24
  C 124.51 208.08 126.12 204.12 128.93 200.49
  C 132.34 196.08 136.04 191.14 136.03 185.26
  Q 136.00 173.95 135.96 162.82
  C 135.95 158.55 137.75 154.86 137.93 150.70
  Q 138.05 147.85 138.89 144.48
  Q 140.05 139.81 140.96 134.76
  C 142.06 128.56 145.12 123.54 147.19 117.85
  C 150.14 109.72 154.66 102.00 159.38 94.69
  C 160.49 92.98 162.00 91.71 163.20 90.10
  C 165.43 87.12 167.17 83.89 170.01 81.29
  C 172.42 79.07 173.68 75.55 176.30 73.64
  C 179.72 71.16 182.36 67.96 185.80 65.44
  C 188.19 63.68 189.93 61.34 192.55 59.81
  C 196.14 57.71 199.33 55.06 202.98 52.91
  C 209.02 49.35 214.93 46.88 220.75 43.73
  C 226.01 40.88 232.45 39.67 237.99 37.61
  C 241.93 36.15 245.76 35.67 249.74 34.60
  C 252.13 33.96 254.42 34.17 256.76 33.57
  Q 259.23 32.94 261.75 32.96
  C 264.10 32.99 266.05 32.04 268.45 32.03
  Q 275.29 31.98 283.30 31.97
  Q 289.77 31.96 295.10 32.97
  Q 299.60 33.83 304.66 34.46
  Q 309.07 35.02 314.16 36.55
  Q 323.97 39.51 334.50 43.03
  Q 337.31 43.98 339.96 45.74
  C 343.99 48.43 349.04 49.13 352.69 52.43
  C 355.89 55.32 360.01 57.32 363.62 59.58
  C 365.16 60.53 366.25 62.00 367.74 63.10
  Q 372.77 66.79 376.96 71.39
  Q 378.31 72.87 379.74 73.90
  C 381.11 74.88 382.52 75.85 383.44 77.29
  C 384.91 79.60 386.88 81.39 388.57 83.51
  Q 391.43 87.10 394.16 90.63
  C 396.23 93.30 397.36 96.69 399.57 99.10
  C 403.37 103.23 404.74 108.61 407.44 113.51
  Q 410.48 119.05 412.88 126.91
  C 414.16 131.11 415.94 135.11 416.75 139.33
  Q 418.02 145.94 419.48 152.85
  Q 419.95 155.06 420.01 157.22
  C 420.08 159.28 420.99 160.97 420.98 162.98
  Q 420.95 174.13 421.05 184.69
  Q 421.07 187.71 420.38 190.52
  Q 419.69 193.32 419.99 196.48
  C 420.19 198.60 419.11 200.41 419.02 202.52
  C 418.89 205.16 418.04 207.94 417.24 210.47
  C 416.28 213.53 418.76 216.55 420.49 218.81
  C 423.58 222.83 430.62 220.94 434.15 218.66
  Z
  M 210.78 157.90
  C 215.55 138.65 227.65 123.01 245.12 113.48
  Q 259.77 105.49 278.33 104.98
  C 283.36 104.84 288.48 105.74 293.51 105.73
  Q 337.58 105.72 382.34 105.76
  C 383.86 105.76 385.38 106.07 386.92 106.06
  Q 387.55 106.06 387.48 105.44
  Q 387.31 103.89 386.19 102.27
  Q 358.10 61.33 311.21 48.51
  C 291.50 43.12 270.63 42.97 250.50 47.48
  C 219.76 54.36 192.34 72.70 173.76 98.32
  Q 172.90 99.50 173.64 100.74
  Q 189.28 127.06 205.94 155.08
  Q 207.27 157.31 209.41 158.50
  A 0.95 0.94 -68.5 0 0 210.78 157.90
  Z
  M 162.55 116.88
  C 156.76 126.96 152.96 138.96 150.39 150.28
  Q 148.73 157.56 148.38 165.26
  Q 148.03 172.90 147.33 180.75
  A 0.69 0.69 0.0 0 0 148.29 181.44
  Q 156.88 177.72 165.99 176.32
  C 169.46 175.80 172.90 176.07 176.36 175.97
  C 184.76 175.74 193.52 178.11 201.05 181.78
  Q 202.76 182.62 201.77 180.98
  L 162.87 116.87
  A 0.19 0.18 -45.9 0 0 162.55 116.88
  Z
  M 234.18 149.69
  C 229.26 158.26 227.18 170.33 228.11 180.01
  Q 230.06 200.54 245.23 214.16
  A 1.45 1.45 0.0 0 0 246.81 214.40
  Q 263.58 206.47 281.84 210.24
  Q 294.39 212.84 301.22 219.61
  C 302.78 221.17 304.67 220.82 306.34 219.70
  Q 325.88 206.52 329.90 184.10
  C 331.46 175.45 330.73 166.08 327.36 157.86
  Q 325.03 152.20 323.34 149.32
  C 313.42 132.39 295.41 122.24 275.76 123.49
  C 258.08 124.62 243.09 134.20 234.18 149.69
  Z
  M 392.39 188.85
  C 394.69 191.27 397.79 191.55 400.44 193.71
  Q 404.55 197.04 408.18 200.40
  Q 408.76 200.95 408.89 200.16
  Q 412.18 180.42 409.09 161.94
  C 406.97 149.28 404.08 137.87 399.34 126.48
  C 398.50 124.46 396.91 123.46 394.80 123.46
  Q 366.55 123.40 330.06 123.48
  A 1.39 1.38 24.3 0 0 329.15 123.82
  Q 328.17 124.68 328.97 125.50
  Q 342.11 138.97 346.57 156.48
  C 347.72 160.99 349.10 165.41 349.05 170.15
  Q 348.98 176.78 349.02 183.26
  Q 349.02 183.96 348.69 184.57
  Q 347.63 186.51 347.15 188.51
  Q 346.94 189.37 347.70 188.91
  Q 353.12 185.67 362.86 185.09
  C 369.76 184.68 377.26 183.95 383.53 186.16
  Q 387.21 187.46 390.95 188.08
  Q 391.80 188.22 392.39 188.85
  Z
  M 328.31 303.99
  Q 328.91 309.98 327.06 304.26
  Q 319.55 280.97 312.33 258.97
  Q 308.05 245.92 305.24 241.62
  C 291.18 220.17 262.94 215.44 242.83 231.56
  C 235.80 237.20 232.14 243.97 228.90 252.63
  Q 228.45 253.82 228.31 255.06
  A 1.73 1.72 -82.3 0 1 226.32 256.58
  L 215.72 254.91
  Q 213.93 254.63 214.58 252.94
  C 217.69 244.91 220.20 235.52 218.96 227.16
  Q 215.95 206.82 200.33 195.87
  C 186.09 185.89 167.43 185.17 152.15 194.19
  Q 138.65 202.17 132.88 217.90
  C 131.56 221.50 131.12 225.24 130.35 228.95
  A 0.93 0.93 0.0 0 1 129.45 229.69
  Q 126.80 229.73 124.28 229.86
  C 110.07 230.57 97.20 240.37 92.92 254.06
  Q 87.86 270.20 96.94 284.19
  Q 104.11 295.23 117.44 298.90
  C 121.67 300.07 125.90 299.78 130.11 301.19
  Q 150.45 307.97 179.28 313.53
  Q 244.11 326.01 306.30 324.22
  Q 310.57 324.10 314.56 324.28
  A 1.55 1.54 82.7 0 1 315.96 325.37
  C 323.40 349.48 350.03 361.07 372.26 349.25
  Q 387.81 340.98 392.35 323.23
  C 393.03 320.60 393.06 317.88 393.07 315.19
  A 1.47 1.46 82.9 0 1 394.17 313.77
  Q 413.03 308.97 432.02 302.31
  C 436.59 300.71 440.55 298.08 445.45 297.81
  C 456.04 297.22 465.26 292.77 471.71 284.65
  C 482.34 271.27 482.11 253.40 471.20 240.17
  C 462.35 229.44 447.61 224.83 434.12 229.19
  C 430.03 230.51 426.39 232.55 422.27 233.61
  Q 419.51 234.32 416.83 235.03
  Q 414.80 235.57 414.25 233.56
  Q 406.93 206.98 382.30 199.19
  C 354.94 190.53 326.64 208.88 322.73 237.51
  Q 321.96 243.17 323.50 257.45
  Q 325.91 279.82 328.31 303.99
  Z
  M 400.09 340.35
  Q 397.42 343.99 395.04 347.08
  Q 387.35 357.08 376.06 362.22
  Q 357.19 370.81 338.38 364.79
  Q 317.50 358.10 306.82 338.07
  Q 306.59 337.64 306.10 337.64
  Q 270.71 338.06 261.01 337.20
  Q 243.42 335.63 225.72 334.15
  L 194.05 329.74
  L 164.79 324.05
  Q 146.29 320.13 140.48 318.27
  Q 134.50 316.36 128.42 314.42
  Q 127.95 314.26 127.91 314.76
  Q 124.05 368.13 120.60 421.52
  Q 119.96 431.47 119.22 441.47
  Q 115.90 486.56 111.93 545.74
  Q 107.60 610.19 102.64 680.00
  Q 102.45 682.57 102.89 685.01
  Q 102.98 685.51 103.44 685.71
  Q 114.68 690.39 126.34 693.89
  Q 170.81 707.25 217.01 712.17
  Q 234.77 714.06 244.50 714.56
  Q 255.44 715.12 260.00 715.52
  Q 266.52 716.10 305.16 715.58
  C 308.98 715.52 312.70 714.88 316.50 714.82
  C 325.28 714.69 334.48 713.53 342.96 712.60
  Q 386.00 707.89 427.27 694.52
  C 439.81 690.46 451.90 685.33 463.58 679.99
  A 2.09 2.08 -14.7 0 0 464.79 677.94
  L 459.63 611.23
  Q 459.55 610.15 460.63 610.20
  Q 496.36 611.82 528.37 600.83
  Q 533.88 598.94 538.50 596.54
  C 549.04 591.05 559.02 583.92 558.70 570.47
  C 557.84 534.77 554.25 498.75 549.88 461.51
  Q 544.59 416.34 539.06 369.83
  Q 538.31 363.57 537.11 360.12
  C 530.16 340.13 500.31 341.34 483.50 342.62
  Q 464.63 344.06 440.70 346.45
  Q 439.11 346.61 439.00 345.01
  L 436.83 315.70
  A 0.88 0.88 0.0 0 0 435.64 314.94
  Q 422.38 319.99 408.14 323.56
  C 406.51 323.97 405.53 324.63 405.09 326.38
  Q 403.21 333.80 400.09 340.35
  Z"
/>
<path fill="#ec5f50" d="
  M 245.12 113.48
  C 227.65 123.01 215.55 138.65 210.78 157.90
  A 0.95 0.94 -68.5 0 1 209.41 158.50
  Q 207.27 157.31 205.94 155.08
  Q 189.28 127.06 173.64 100.74
  Q 172.90 99.50 173.76 98.32
  C 192.34 72.70 219.76 54.36 250.50 47.48
  C 270.63 42.97 291.50 43.12 311.21 48.51
  Q 358.10 61.33 386.19 102.27
  Q 387.31 103.89 387.48 105.44
  Q 387.55 106.06 386.92 106.06
  C 385.38 106.07 383.86 105.76 382.34 105.76
  Q 337.58 105.72 293.51 105.73
  C 288.48 105.74 283.36 104.84 278.33 104.98
  Q 259.77 105.49 245.12 113.48
  Z"
/>
<path fill="#60bd5e" d="
  M 150.39 150.28
  C 152.96 138.96 156.76 126.96 162.55 116.88
  A 0.19 0.18 -45.9 0 1 162.87 116.87
  L 201.77 180.98
  Q 202.76 182.62 201.05 181.78
  C 193.52 178.11 184.76 175.74 176.36 175.97
  C 172.90 176.07 169.46 175.80 165.99 176.32
  Q 156.88 177.72 148.29 181.44
  A 0.69 0.69 0.0 0 1 147.33 180.75
  Q 148.03 172.90 148.38 165.26
  Q 148.73 157.56 150.39 150.28
  Z"
/>
<path fill="#338fc6" d="
  M 234.18 149.69
  C 243.09 134.20 258.08 124.62 275.76 123.49
  C 295.41 122.24 313.42 132.39 323.34 149.32
  Q 325.03 152.20 327.36 157.86
  C 330.73 166.08 331.46 175.45 329.90 184.10
  Q 325.88 206.52 306.34 219.70
  C 304.67 220.82 302.78 221.17 301.22 219.61
  Q 294.39 212.84 281.84 210.24
  Q 263.58 206.47 246.81 214.40
  A 1.45 1.45 0.0 0 1 245.23 214.16
  Q 230.06 200.54 228.11 180.01
  C 227.18 170.33 229.26 158.26 234.18 149.69
  Z"
/>
<path fill="#fcd830" d="
  M 390.95 188.08
  Q 387.21 187.46 383.53 186.16
  C 377.26 183.95 369.76 184.68 362.86 185.09
  Q 353.12 185.67 347.70 188.91
  Q 346.94 189.37 347.15 188.51
  Q 347.63 186.51 348.69 184.57
  Q 349.02 183.96 349.02 183.26
  Q 348.98 176.78 349.05 170.15
  C 349.10 165.41 347.72 160.99 346.57 156.48
  Q 342.11 138.97 328.97 125.50
  Q 328.17 124.68 329.15 123.82
  A 1.39 1.38 24.3 0 1 330.06 123.48
  Q 366.55 123.40 394.80 123.46
  C 396.91 123.46 398.50 124.46 399.34 126.48
  C 404.08 137.87 406.97 149.28 409.09 161.94
  Q 412.18 180.42 408.89 200.16
  Q 408.76 200.95 408.18 200.40
  Q 404.55 197.04 400.44 193.71
  C 397.79 191.55 394.69 191.27 392.39 188.85
  Q 391.80 188.22 390.95 188.08
  Z"
/>
<path fill="#fffffe" d="
  M 328.31 303.99
  Q 325.91 279.82 323.50 257.45
  Q 321.96 243.17 322.73 237.51
  C 326.64 208.88 354.94 190.53 382.30 199.19
  Q 406.93 206.98 414.25 233.56
  Q 414.80 235.57 416.83 235.03
  Q 419.51 234.32 422.27 233.61
  C 426.39 232.55 430.03 230.51 434.12 229.19
  C 447.61 224.83 462.35 229.44 471.20 240.17
  C 482.11 253.40 482.34 271.27 471.71 284.65
  C 465.26 292.77 456.04 297.22 445.45 297.81
  C 440.55 298.08 436.59 300.71 432.02 302.31
  Q 413.03 308.97 394.17 313.77
  A 1.47 1.46 82.9 0 0 393.07 315.19
  C 393.06 317.88 393.03 320.60 392.35 323.23
  Q 387.81 340.98 372.26 349.25
  C 350.03 361.07 323.40 349.48 315.96 325.37
  A 1.55 1.54 82.7 0 0 314.56 324.28
  Q 310.57 324.10 306.30 324.22
  Q 244.11 326.01 179.28 313.53
  Q 150.45 307.97 130.11 301.19
  C 125.90 299.78 121.67 300.07 117.44 298.90
  Q 104.11 295.23 96.94 284.19
  Q 87.86 270.20 92.92 254.06
  C 97.20 240.37 110.07 230.57 124.28 229.86
  Q 126.80 229.73 129.45 229.69
  A 0.93 0.93 0.0 0 0 130.35 228.95
  C 131.12 225.24 131.56 221.50 132.88 217.90
  Q 138.65 202.17 152.15 194.19
  C 167.43 185.17 186.09 185.89 200.33 195.87
  Q 215.95 206.82 218.96 227.16
  C 220.20 235.52 217.69 244.91 214.58 252.94
  Q 213.93 254.63 215.72 254.91
  L 226.32 256.58
  A 1.73 1.72 -82.3 0 0 228.31 255.06
  Q 228.45 253.82 228.90 252.63
  C 232.14 243.97 235.80 237.20 242.83 231.56
  C 262.94 215.44 291.18 220.17 305.24 241.62
  Q 308.05 245.92 312.33 258.97
  Q 319.55 280.97 327.06 304.26
  Q 328.91 309.98 328.31 303.99
  Z"
/>
<path fill="#fffffe" d="
  M 164.79 324.05
  Q 163.02 353.45 160.88 382.43
  Q 160.26 390.87 159.85 399.08
  Q 159.43 407.48 158.73 415.72
  Q 157.64 428.66 156.97 444.05
  C 156.74 449.32 156.03 454.56 155.67 459.75
  Q 152.49 505.36 150.07 543.51
  Q 148.21 572.71 145.78 605.77
  Q 145.38 611.14 145.15 616.48
  C 144.87 623.05 143.88 629.55 143.63 636.32
  Q 143.44 641.14 142.84 645.41
  Q 142.57 647.38 144.36 648.25
  Q 153.12 652.47 162.69 655.40
  C 174.52 659.02 186.05 662.39 197.98 664.71
  Q 222.12 669.38 243.83 671.49
  Q 273.14 674.34 304.49 672.76
  Q 334.29 671.26 364.60 664.48
  C 376.04 661.92 388.32 658.18 399.30 654.11
  Q 408.90 650.55 420.94 644.58
  C 422.27 643.92 424.23 642.61 424.18 641.00
  Q 424.00 634.31 423.01 627.38
  Q 422.48 623.72 422.40 620.21
  C 422.27 614.06 421.18 607.96 420.93 601.99
  C 420.66 595.08 419.48 588.04 419.35 581.15
  Q 419.25 576.12 418.58 570.94
  C 417.84 565.14 418.12 559.35 417.31 553.56
  C 416.53 547.93 416.70 541.99 415.96 536.24
  Q 415.19 530.28 415.01 523.07
  C 414.91 518.81 413.85 514.66 413.70 510.39
  Q 413.47 503.73 412.63 497.18
  C 412.00 492.25 412.19 487.26 411.63 482.31
  C 410.75 474.51 410.58 467.04 409.67 459.40
  C 409.09 454.52 409.36 449.66 408.77 444.72
  Q 408.13 439.27 407.82 433.74
  C 407.49 427.84 406.55 421.69 406.42 415.67
  Q 406.34 411.68 405.88 408.00
  C 404.91 400.09 404.59 392.12 403.66 384.27
  C 403.11 379.56 403.37 374.84 402.76 370.21
  Q 402.10 365.15 401.81 359.73
  Q 401.30 350.13 400.09 340.35
  Q 403.21 333.80 405.09 326.38
  C 405.53 324.63 406.51 323.97 408.14 323.56
  Q 422.38 319.99 435.64 314.94
  A 0.88 0.88 0.0 0 1 436.83 315.70
  L 439.00 345.01
  Q 439.11 346.61 440.70 346.45
  Q 464.63 344.06 483.50 342.62
  C 500.31 341.34 530.16 340.13 537.11 360.12
  Q 538.31 363.57 539.06 369.83
  Q 544.59 416.34 549.88 461.51
  C 554.25 498.75 557.84 534.77 558.70 570.47
  C 559.02 583.92 549.04 591.05 538.50 596.54
  Q 533.88 598.94 528.37 600.83
  Q 496.36 611.82 460.63 610.20
  Q 459.55 610.15 459.63 611.23
  L 464.79 677.94
  A 2.09 2.08 -14.7 0 1 463.58 679.99
  C 451.90 685.33 439.81 690.46 427.27 694.52
  Q 386.00 707.89 342.96 712.60
  C 334.48 713.53 325.28 714.69 316.50 714.82
  C 312.70 714.88 308.98 715.52 305.16 715.58
  Q 266.52 716.10 260.00 715.52
  Q 255.44 715.12 244.50 714.56
  Q 234.77 714.06 217.01 712.17
  Q 170.81 707.25 126.34 693.89
  Q 114.68 690.39 103.44 685.71
  Q 102.98 685.51 102.89 685.01
  Q 102.45 682.57 102.64 680.00
  Q 107.60 610.19 111.93 545.74
  Q 115.90 486.56 119.22 441.47
  Q 119.96 431.47 120.60 421.52
  Q 124.05 368.13 127.91 314.76
  Q 127.95 314.26 128.42 314.42
  Q 134.50 316.36 140.48 318.27
  Q 146.29 320.13 164.79 324.05
  Z
  M 497.77 375.57
  Q 486.85 371.72 477.54 372.79
  Q 460.07 374.79 442.41 377.91
  A 1.11 1.11 0.0 0 0 441.50 379.12
  Q 441.64 380.41 441.77 381.77
  Q 444.22 407.67 446.55 442.04
  Q 447.25 452.41 448.02 461.98
  Q 452.48 517.88 457.04 578.42
  A 0.36 0.36 0.0 0 0 457.42 578.75
  C 472.76 577.84 487.84 575.57 502.36 571.83
  Q 511.45 569.50 520.16 564.39
  Q 527.49 560.09 528.87 552.97
  Q 529.34 550.60 528.44 539.63
  Q 526.31 513.65 522.94 483.78
  Q 518.47 444.14 513.50 400.69
  Q 512.42 391.23 510.50 387.36
  Q 506.11 378.52 497.77 375.57
  Z"
/>
<path fill="#f5b230" d="
  M 164.79 324.05
  L 194.05 329.74
  Q 194.11 338.05 193.66 342.00
  C 192.57 351.65 192.10 363.90 191.58 370.99
  Q 188.66 410.61 186.33 450.77
  C 185.51 464.98 184.26 480.08 183.38 494.78
  Q 182.82 504.16 181.99 514.73
  Q 181.02 527.18 180.29 539.65
  C 179.56 552.32 178.44 566.11 177.86 579.03
  C 177.43 588.69 176.31 598.11 176.11 607.89
  A 1.09 1.08 -84.1 0 0 176.99 608.98
  Q 179.91 609.53 182.65 609.61
  Q 194.93 610.00 206.47 611.17
  A 1.57 1.56 -84.6 0 0 208.18 609.75
  Q 209.27 597.29 210.00 585.51
  Q 210.20 582.30 210.43 579.00
  Q 213.58 534.23 216.23 490.48
  Q 216.84 480.46 217.54 470.52
  Q 222.21 404.42 225.99 342.75
  Q 226.16 339.96 226.05 338.27
  Q 226.02 337.77 226.17 337.30
  Q 226.64 335.83 225.72 334.15
  Q 243.42 335.63 261.01 337.20
  Q 270.71 338.06 306.10 337.64
  Q 306.59 337.64 306.82 338.07
  Q 317.50 358.10 338.38 364.79
  Q 357.19 370.81 376.06 362.22
  Q 387.35 357.08 395.04 347.08
  Q 397.42 343.99 400.09 340.35
  Q 401.30 350.13 401.81 359.73
  Q 402.10 365.15 402.76 370.21
  C 403.37 374.84 403.11 379.56 403.66 384.27
  C 404.59 392.12 404.91 400.09 405.88 408.00
  Q 406.34 411.68 406.42 415.67
  C 406.55 421.69 407.49 427.84 407.82 433.74
  Q 408.13 439.27 408.77 444.72
  C 409.36 449.66 409.09 454.52 409.67 459.40
  C 410.58 467.04 410.75 474.51 411.63 482.31
  C 412.19 487.26 412.00 492.25 412.63 497.18
  Q 413.47 503.73 413.70 510.39
  C 413.85 514.66 414.91 518.81 415.01 523.07
  Q 415.19 530.28 415.96 536.24
  C 416.70 541.99 416.53 547.93 417.31 553.56
  C 418.12 559.35 417.84 565.14 418.58 570.94
  Q 419.25 576.12 419.35 581.15
  C 419.48 588.04 420.66 595.08 420.93 601.99
  C 421.18 607.96 422.27 614.06 422.40 620.21
  Q 422.48 623.72 423.01 627.38
  Q 424.00 634.31 424.18 641.00
  C 424.23 642.61 422.27 643.92 420.94 644.58
  Q 408.90 650.55 399.30 654.11
  C 388.32 658.18 376.04 661.92 364.60 664.48
  Q 334.29 671.26 304.49 672.76
  Q 273.14 674.34 243.83 671.49
  Q 222.12 669.38 197.98 664.71
  C 186.05 662.39 174.52 659.02 162.69 655.40
  Q 153.12 652.47 144.36 648.25
  Q 142.57 647.38 142.84 645.41
  Q 143.44 641.14 143.63 636.32
  C 143.88 629.55 144.87 623.05 145.15 616.48
  Q 145.38 611.14 145.78 605.77
  Q 148.21 572.71 150.07 543.51
  Q 152.49 505.36 155.67 459.75
  C 156.03 454.56 156.74 449.32 156.97 444.05
  Q 157.64 428.66 158.73 415.72
  Q 159.43 407.48 159.85 399.08
  Q 160.26 390.87 160.88 382.43
  Q 163.02 353.45 164.79 324.05
  Z
  M 377.99 407.92
  A 31.24 31.24 0.0 0 0 346.75 376.68
  A 31.24 31.24 0.0 0 0 315.51 407.92
  A 31.24 31.24 0.0 0 0 346.75 439.16
  A 31.24 31.24 0.0 0 0 377.99 407.92
  Z"
/>
<path fill="#fbdd94" d="
  M 194.05 329.74
  L 225.72 334.15
  Q 226.64 335.83 226.17 337.30
  Q 226.02 337.77 226.05 338.27
  Q 226.16 339.96 225.99 342.75
  Q 222.21 404.42 217.54 470.52
  Q 216.84 480.46 216.23 490.48
  Q 213.58 534.23 210.43 579.00
  Q 210.20 582.30 210.00 585.51
  Q 209.27 597.29 208.18 609.75
  A 1.57 1.56 -84.6 0 1 206.47 611.17
  Q 194.93 610.00 182.65 609.61
  Q 179.91 609.53 176.99 608.98
  A 1.09 1.08 -84.1 0 1 176.11 607.89
  C 176.31 598.11 177.43 588.69 177.86 579.03
  C 178.44 566.11 179.56 552.32 180.29 539.65
  Q 181.02 527.18 181.99 514.73
  Q 182.82 504.16 183.38 494.78
  C 184.26 480.08 185.51 464.98 186.33 450.77
  Q 188.66 410.61 191.58 370.99
  C 192.10 363.90 192.57 351.65 193.66 342.00
  Q 194.11 338.05 194.05 329.74
  Z"
/>
<path fill="#000000" d="
  M 497.77 375.57
  Q 506.11 378.52 510.50 387.36
  Q 512.42 391.23 513.50 400.69
  Q 518.47 444.14 522.94 483.78
  Q 526.31 513.65 528.44 539.63
  Q 529.34 550.60 528.87 552.97
  Q 527.49 560.09 520.16 564.39
  Q 511.45 569.50 502.36 571.83
  C 487.84 575.57 472.76 577.84 457.42 578.75
  A 0.36 0.36 0.0 0 1 457.04 578.42
  Q 452.48 517.88 448.02 461.98
  Q 447.25 452.41 446.55 442.04
  Q 444.22 407.67 441.77 381.77
  Q 441.64 380.41 441.50 379.12
  A 1.11 1.11 0.0 0 1 442.41 377.91
  Q 460.07 374.79 477.54 372.79
  Q 486.85 371.72 497.77 375.57
  Z
  M 455.57 395.04
  A 0.76 0.75 9.9 0 1 456.14 395.84
  Q 455.55 402.90 456.54 409.10
  C 457.11 412.68 456.80 416.08 457.29 419.54
  Q 457.86 423.51 458.04 427.27
  Q 458.23 431.25 458.32 435.31
  C 458.36 436.88 459.18 437.90 459.06 439.61
  Q 458.76 444.12 459.34 448.33
  C 460.07 453.64 460.25 458.95 460.35 464.24
  Q 460.35 464.54 460.55 464.78
  Q 460.64 464.89 460.72 465.02
  Q 460.91 465.31 460.92 465.65
  Q 461.18 472.40 461.38 479.15
  Q 461.39 479.54 461.63 479.85
  Q 461.74 479.99 461.83 480.15
  Q 462.01 480.50 462.01 480.89
  Q 461.99 485.02 462.01 489.01
  C 462.02 492.18 463.04 495.12 463.00 498.31
  C 462.94 503.40 463.80 508.54 463.98 513.59
  Q 464.12 517.55 464.58 521.95
  Q 465.24 528.33 465.52 534.75
  C 465.57 535.87 466.20 537.18 466.21 538.53
  Q 466.21 542.75 466.82 547.21
  C 467.52 552.39 466.92 557.04 468.53 562.16
  Q 469.60 565.60 472.21 565.91
  Q 478.41 566.63 483.22 564.83
  C 485.55 563.95 487.89 563.99 490.26 563.14
  Q 492.74 562.26 495.44 561.66
  Q 502.87 560.00 508.67 557.49
  C 512.18 555.97 517.10 551.45 517.05 547.02
  Q 516.95 539.19 517.00 532.33
  C 517.01 531.18 516.61 530.31 516.33 529.23
  C 515.45 525.88 516.43 522.44 515.46 518.96
  Q 514.80 516.60 514.99 513.98
  C 515.15 511.78 513.85 509.92 513.99 507.68
  C 514.28 503.01 513.13 498.58 512.89 493.99
  Q 512.43 485.05 510.66 475.92
  Q 509.88 471.90 509.98 468.12
  C 510.07 465.11 508.76 462.64 509.00 459.58
  C 509.20 456.96 507.88 454.78 507.93 452.08
  C 507.96 450.42 507.03 448.93 507.01 447.20
  C 506.99 444.63 507.44 440.78 506.63 438.35
  C 505.87 436.07 505.99 434.05 505.97 431.68
  C 505.94 428.38 504.83 425.56 504.98 422.26
  C 505.07 420.20 504.11 418.36 504.05 416.24
  Q 503.82 406.75 501.69 398.49
  C 500.47 393.79 495.57 384.94 489.58 384.97
  Q 478.72 385.03 467.85 384.96
  C 466.03 384.95 464.59 385.75 462.85 385.88
  C 460.25 386.09 458.31 387.27 456.08 388.36
  A 1.10 1.07 83.4 0 0 455.49 389.12
  Q 454.96 391.82 455.02 394.23
  Q 455.02 394.48 455.14 394.71
  Q 455.26 394.95 455.57 395.04
  Z"
/>
<path fill="#000000" d="
  M 377.99 407.92
  A 31.24 31.24 0.0 0 1 346.75 439.16
  A 31.24 31.24 0.0 0 1 315.51 407.92
  A 31.24 31.24 0.0 0 1 346.75 376.68
  A 31.24 31.24 0.0 0 1 377.99 407.92
  Z
  M 364.81 407.92
  A 18.06 18.06 0.0 0 0 346.75 389.86
  A 18.06 18.06 0.0 0 0 328.69 407.92
  A 18.06 18.06 0.0 0 0 346.75 425.98
  A 18.06 18.06 0.0 0 0 364.81 407.92
  Z"
/>
<circle fill="#fffffe" cx="346.75" cy="407.92" r="18.06"/>
</svg>
