<?xml version="1.0" encoding="UTF-8" standalone="no"?>
<!DOCTYPE svg PUBLIC "-//W3C//DTD SVG 1.1//EN" "http://www.w3.org/Graphics/SVG/1.1/DTD/svg11.dtd">
<svg xmlns="http://www.w3.org/2000/svg" version="1.1" viewBox="0.00 0.00 626.00 741.00" width="170" height="229">
<g stroke-width="2.00" fill="none" stroke-linecap="butt">
<path stroke="#763028" vector-effect="non-scaling-stroke" d="
  M 210.78 157.90
  C 215.55 138.65 227.65 123.01 245.12 113.48
  Q 259.77 105.49 278.33 104.98
  C 283.36 104.84 288.48 105.74 293.51 105.73
  Q 337.58 105.72 382.34 105.76
  C 383.86 105.76 385.38 106.07 386.92 106.06
  Q 387.55 106.06 387.48 105.44
  Q 387.31 103.89 386.19 102.27
  Q 358.10 61.33 311.21 48.51
  C 291.50 43.12 270.63 42.97 250.50 47.48
  C 219.76 54.36 192.34 72.70 173.76 98.32
  Q 172.90 99.50 173.64 100.74
  Q 189.28 127.06 205.94 155.08
  Q 207.27 157.31 209.41 158.50
  A 0.95 0.94 -68.5 0 0 210.78 157.90"
/>
<path stroke="#305f2f" vector-effect="non-scaling-stroke" d="
  M 162.55 116.88
  C 156.76 126.96 152.96 138.96 150.39 150.28
  Q 148.73 157.56 148.38 165.26
  Q 148.03 172.90 147.33 180.75
  A 0.69 0.69 0.0 0 0 148.29 181.44
  Q 156.88 177.72 165.99 176.32
  C 169.46 175.80 172.90 176.07 176.36 175.97
  C 184.76 175.74 193.52 178.11 201.05 181.78
  Q 202.76 182.62 201.77 180.99
  L 162.87 116.87
  A 0.19 0.18 -45.9 0 0 162.55 116.88"
/>
<path stroke="#1a4863" vector-effect="non-scaling-stroke" d="
  M 234.18 149.69
  C 229.26 158.26 227.18 170.33 228.11 180.01
  Q 230.06 200.54 245.23 214.16
  A 1.45 1.45 0.0 0 0 246.81 214.40
  Q 263.58 206.47 281.84 210.24
  Q 294.39 212.84 301.22 219.61
  C 302.78 221.17 304.67 220.82 306.34 219.70
  Q 325.88 206.52 329.90 184.10
  C 331.46 175.45 330.73 166.08 327.36 157.86
  Q 325.03 152.20 323.34 149.32
  C 313.42 132.39 295.41 122.24 275.76 123.49
  C 258.08 124.62 243.09 134.20 234.18 149.69"
/>
<path stroke="#7e6c18" vector-effect="non-scaling-stroke" d="
  M 392.39 188.85
  C 394.69 191.27 397.79 191.55 400.44 193.71
  Q 404.55 197.04 408.18 200.40
  Q 408.76 200.95 408.89 200.16
  Q 412.18 180.42 409.09 161.94
  C 406.97 149.28 404.08 137.87 399.34 126.48
  C 398.50 124.46 396.91 123.46 394.80 123.46
  Q 366.55 123.40 330.06 123.48
  A 1.39 1.38 24.3 0 0 329.15 123.82
  Q 328.17 124.68 328.97 125.50
  Q 342.11 138.97 346.57 156.48
  C 347.72 160.99 349.10 165.41 349.05 170.15
  Q 348.98 176.78 349.02 183.26
  Q 349.02 183.96 348.69 184.57
  Q 347.63 186.51 347.15 188.51
  Q 346.94 189.37 347.70 188.91
  Q 353.12 185.67 362.86 185.09
  C 369.76 184.68 377.26 183.95 383.53 186.16
  Q 387.21 187.46 390.95 188.08
  Q 391.80 188.22 392.39 188.85"
/>
<path stroke="#80807f" vector-effect="non-scaling-stroke" d="
  M 328.31 303.99
  Q 328.91 309.98 327.06 304.26
  Q 319.55 280.97 312.33 258.97
  Q 308.05 245.92 305.24 241.62
  C 291.18 220.17 262.94 215.44 242.83 231.56
  C 235.80 237.20 232.14 243.97 228.90 252.63
  Q 228.45 253.82 228.31 255.06
  A 1.73 1.72 -82.3 0 1 226.32 256.58
  L 215.72 254.91
  Q 213.93 254.63 214.58 252.94
  C 217.69 244.91 220.20 235.52 218.96 227.16
  Q 215.95 206.82 200.33 195.87
  C 186.09 185.89 167.43 185.17 152.15 194.19
  Q 138.65 202.17 132.88 217.90
  C 131.56 221.50 131.12 225.24 130.35 228.95
  A 0.93 0.93 0.0 0 1 129.45 229.69
  Q 126.80 229.73 124.28 229.86
  C 110.07 230.57 97.20 240.37 92.92 254.06
  Q 87.86 270.20 96.94 284.19
  Q 104.11 295.23 117.44 298.90
  C 121.58 300.04 125.75 299.76 129.83 301.11
  Q 150.72 308.02 179.14 313.50
  Q 244.22 326.04 306.29 324.21
  Q 310.45 324.09 314.59 324.28
  A 1.48 1.47 -7.0 0 1 315.93 325.32
  C 320.88 341.57 334.43 352.56 351.50 353.79
  C 372.97 355.33 393.66 337.45 393.07 315.19
  A 1.38 1.37 81.8 0 1 394.09 313.82
  Q 413.16 308.90 431.97 302.34
  C 436.55 300.73 440.54 298.08 445.45 297.81
  C 456.12 297.22 465.38 292.70 471.84 284.49
  C 482.33 271.13 482.05 253.33 471.24 240.23
  Q 462.20 229.27 447.56 227.71
  C 440.54 226.96 433.96 228.79 427.58 231.73
  C 424.18 233.29 420.44 234.07 416.83 235.03
  Q 414.80 235.57 414.24 233.52
  Q 406.87 206.87 382.16 199.15
  C 354.82 190.59 326.59 208.97 322.74 237.51
  Q 321.97 243.17 323.50 257.45
  Q 325.90 279.78 328.31 303.99"
/>
<path stroke="#7b5918" vector-effect="non-scaling-stroke" d="
  M 400.09 340.34
  Q 397.42 343.99 395.04 347.08
  Q 387.33 357.10 376.04 362.23
  Q 357.17 370.82 338.39 364.80
  Q 317.57 358.14 306.85 338.08
  Q 306.61 337.64 306.10 337.64
  Q 270.71 338.06 261.01 337.20
  Q 243.42 335.63 225.72 334.15"
/>
<path stroke="#7e6f4a" vector-effect="non-scaling-stroke" d="
  M 225.72 334.15
  L 194.05 329.74"
/>
<path stroke="#7b5918" vector-effect="non-scaling-stroke" d="
  M 194.05 329.74
  L 164.79 324.05"
/>
<path stroke="#80807f" vector-effect="non-scaling-stroke" d="
  M 164.79 324.05
  Q 146.29 320.13 140.48 318.27
  Q 134.50 316.36 128.42 314.42
  Q 127.95 314.26 127.91 314.76
  Q 124.05 368.13 120.60 421.52
  Q 119.96 431.47 119.22 441.47
  Q 115.90 486.56 111.93 545.74
  Q 107.60 610.19 102.64 680.00
  Q 102.45 682.57 102.89 685.01
  Q 102.98 685.51 103.44 685.71
  Q 114.68 690.39 126.34 693.89
  Q 170.81 707.25 217.01 712.17
  Q 234.77 714.06 244.50 714.56
  Q 255.44 715.12 260.00 715.52
  Q 266.44 716.10 305.16 715.58
  C 308.98 715.52 312.73 714.88 316.50 714.82
  C 325.27 714.69 334.47 713.53 342.91 712.61
  Q 385.98 707.90 427.24 694.53
  C 439.85 690.45 451.61 685.43 463.42 680.08
  A 2.31 2.31 0.0 0 0 464.77 677.79
  L 459.63 611.23
  Q 459.55 610.15 460.63 610.20
  Q 496.48 611.82 528.75 600.71
  C 535.36 598.44 541.47 595.25 547.01 591.45
  Q 550.22 589.24 553.33 585.74
  C 558.34 580.08 558.97 573.92 558.68 566.43
  Q 557.55 537.70 555.43 515.00
  Q 551.99 478.20 548.42 448.72
  Q 543.80 410.63 539.40 372.27
  Q 538.22 362.01 536.33 358.12
  C 529.81 344.74 513.18 342.22 499.83 342.09
  Q 488.22 341.97 472.57 343.47
  Q 458.11 344.85 440.56 346.40
  Q 439.11 346.53 439.00 345.08
  L 436.83 315.70
  A 0.89 0.88 -12.5 0 0 435.63 314.94
  Q 422.39 319.99 408.14 323.56
  C 406.51 323.97 405.53 324.63 405.09 326.38
  Q 403.21 333.80 400.09 340.34"
/>
<path stroke="#fad997" vector-effect="non-scaling-stroke" d="
  M 164.79 324.05
  Q 163.02 353.45 160.88 382.43
  Q 160.26 390.87 159.85 399.08
  Q 159.43 407.48 158.73 415.72
  Q 157.64 428.66 156.97 444.05
  C 156.74 449.32 156.03 454.56 155.67 459.75
  Q 152.49 505.36 150.07 543.51
  Q 148.21 572.71 145.78 605.77
  Q 145.38 611.14 145.15 616.48
  C 144.87 623.05 143.88 629.55 143.63 636.32
  Q 143.44 641.14 142.84 645.41
  Q 142.57 647.38 144.36 648.25
  Q 153.12 652.47 162.69 655.40
  C 174.52 659.02 186.05 662.39 197.98 664.71
  Q 222.12 669.38 243.83 671.49
  Q 273.14 674.34 304.49 672.76
  Q 334.42 671.25 364.57 664.47
  C 376.20 661.86 388.65 658.11 399.64 653.97
  Q 410.54 649.87 421.49 644.26
  C 422.83 643.58 424.23 642.43 424.17 640.77
  Q 423.96 633.92 423.00 627.35
  C 422.29 622.52 422.50 617.64 421.88 612.82
  C 420.88 605.08 420.95 597.83 419.97 590.24
  C 419.30 585.00 419.44 579.71 418.90 574.47
  Q 418.22 567.86 418.04 562.54
  Q 417.89 558.11 417.36 554.14
  C 416.50 547.64 416.65 541.16 415.76 534.63
  C 415.05 529.42 415.35 524.21 414.63 518.97
  Q 413.83 513.15 413.52 507.21
  Q 413.26 502.23 412.63 497.26
  C 412.00 492.33 412.17 487.24 411.62 482.27
  Q 411.00 476.72 410.69 471.17
  C 410.31 464.44 409.28 457.68 409.18 450.88
  Q 409.11 446.04 408.37 441.07
  C 407.85 437.64 408.06 434.14 407.66 430.74
  Q 406.71 422.55 406.38 414.76
  C 406.11 408.24 405.10 402.16 404.71 395.64
  Q 404.43 390.85 403.84 385.91
  C 403.17 380.31 403.40 374.30 402.56 368.53
  Q 402.07 365.17 401.89 361.31
  Q 401.40 350.93 400.09 340.34"
/>
<path stroke="#f8c862" vector-effect="non-scaling-stroke" d="
  M 194.05 329.74
  Q 194.11 338.05 193.66 342.00
  C 192.57 351.65 192.10 363.90 191.58 370.99
  Q 188.66 410.61 186.33 450.77
  C 185.51 464.98 184.26 480.08 183.38 494.78
  Q 182.82 504.16 181.99 514.73
  Q 181.02 527.18 180.29 539.65
  C 179.56 552.32 178.44 566.11 177.86 579.03
  C 177.43 588.69 176.31 598.11 176.11 607.89
  A 1.09 1.08 -84.1 0 0 176.99 608.98
  Q 179.91 609.53 182.65 609.61
  Q 194.95 610.00 206.49 611.17
  A 1.58 1.58 0.0 0 0 208.22 609.73
  Q 209.22 597.28 209.99 585.51
  Q 210.21 582.14 210.43 579.00
  Q 213.58 534.24 216.23 490.48
  Q 216.84 480.50 217.54 470.52
  Q 222.27 403.47 225.99 342.75
  Q 226.16 339.96 226.05 338.27
  Q 226.02 337.77 226.18 337.30
  Q 226.64 335.83 225.72 334.15"
/>
<path stroke="#80807f" vector-effect="non-scaling-stroke" d="
  M 504.32 379.39
  C 497.57 373.65 485.12 371.83 476.73 372.84
  Q 459.81 374.87 442.38 377.91
  A 1.10 1.10 0.0 0 0 441.49 379.18
  Q 441.79 380.86 441.94 382.51
  Q 444.32 409.97 446.54 442.02
  Q 447.28 452.79 448.02 461.98
  Q 452.62 519.82 457.05 578.42
  A 0.34 0.33 86.6 0 0 457.40 578.74
  Q 479.56 577.47 501.00 572.20
  C 508.94 570.25 518.15 566.71 524.35 561.18
  Q 529.44 556.63 529.01 549.27
  Q 528.00 532.12 526.39 516.49
  Q 520.85 462.43 512.75 395.16
  Q 511.60 385.56 504.32 379.39"
/>
<path stroke="#7b5918" vector-effect="non-scaling-stroke" d="
  M 377.99 407.92
  A 31.24 31.24 0.0 0 0 346.75 376.68
  A 31.24 31.24 0.0 0 0 315.51 407.92
  A 31.24 31.24 0.0 0 0 346.75 439.16
  A 31.24 31.24 0.0 0 0 377.99 407.92"
/>
<path stroke="#80807f" vector-effect="non-scaling-stroke" d="
  M 364.81 407.92
  A 18.06 18.06 0.0 0 0 346.75 389.86
  A 18.06 18.06 0.0 0 0 328.69 407.92
  A 18.06 18.06 0.0 0 0 346.75 425.98
  A 18.06 18.06 0.0 0 0 364.81 407.92"
/>
</g>
<path fill="#000000" d="
  M 434.13 218.67
  C 436.53 217.12 439.77 215.88 442.70 215.97
  C 445.77 216.06 449.00 215.61 451.94 216.48
  C 455.17 217.44 458.13 217.83 461.23 219.38
  C 463.69 220.61 466.26 221.13 468.71 222.53
  Q 482.45 230.38 487.32 244.66
  C 488.46 247.99 490.94 251.26 490.97 254.66
  Q 491.02 261.06 491.03 269.07
  Q 491.03 271.02 490.56 272.74
  C 490.09 274.45 489.82 276.19 489.03 277.78
  C 486.44 283.02 484.10 289.39 479.86 293.65
  C 476.07 297.45 472.34 301.62 467.37 303.60
  Q 459.20 306.86 451.58 310.18
  C 448.36 311.59 449.34 313.79 448.32 316.38
  Q 448.10 316.95 448.29 317.53
  C 448.60 318.52 448.99 319.29 449.01 320.36
  Q 449.06 323.46 448.92 327.02
  C 448.79 330.41 451.14 333.52 454.36 333.95
  C 458.57 334.52 462.34 331.96 466.52 331.98
  Q 471.50 332.02 476.42 332.00
  C 478.28 331.99 479.80 331.03 481.64 331.03
  Q 494.21 330.99 507.99 330.99
  Q 510.26 330.99 512.51 331.65
  C 514.56 332.25 516.52 331.78 518.62 332.35
  Q 526.28 334.44 533.84 338.43
  C 536.95 340.07 539.01 342.67 541.50 345.09
  Q 542.91 346.46 544.06 348.35
  Q 547.34 353.79 549.07 359.27
  Q 549.85 361.71 550.01 364.26
  C 550.18 366.71 551.23 368.83 551.01 371.34
  Q 550.74 374.37 551.49 377.01
  Q 552.05 378.99 552.02 381.07
  C 551.98 383.20 552.95 384.85 552.93 387.04
  Q 552.85 395.42 555.22 403.40
  Q 556.08 406.29 555.97 408.39
  Q 555.82 411.41 556.51 414.11
  C 557.28 417.14 556.57 419.95 557.42 422.86
  C 558.74 427.40 557.36 432.15 558.65 436.85
  C 559.30 439.21 558.67 441.52 559.42 443.91
  C 560.38 446.99 559.75 450.07 560.48 453.35
  Q 561.74 459.02 561.99 464.42
  Q 562.16 468.09 562.90 470.69
  Q 564.10 474.87 564.01 478.73
  Q 563.95 481.40 564.68 484.07
  C 565.35 486.52 564.70 489.00 565.34 491.55
  Q 566.29 495.38 565.99 500.52
  C 565.83 503.36 566.98 505.65 566.99 508.38
  Q 567.01 513.49 566.98 518.65
  C 566.97 520.92 567.94 522.73 567.97 524.87
  C 568.02 529.56 567.50 534.54 568.76 539.10
  C 569.34 541.16 568.81 543.34 569.36 545.47
  C 570.05 548.18 569.78 550.75 570.55 553.39
  Q 571.01 554.99 571.00 556.63
  Q 570.96 564.23 571.03 571.97
  Q 571.05 574.09 570.47 576.02
  C 569.88 577.98 570.07 579.92 569.10 581.75
  Q 567.37 584.97 565.98 588.39
  C 564.66 591.62 561.32 593.76 559.24 596.64
  Q 558.07 598.26 556.26 599.32
  Q 552.43 601.56 549.01 604.10
  Q 545.53 606.68 540.45 608.29
  C 535.82 609.75 531.88 612.51 527.31 613.88
  Q 516.36 617.18 502.91 619.38
  Q 498.99 620.02 496.40 619.97
  C 493.95 619.93 491.85 621.19 489.45 620.97
  C 486.45 620.71 484.23 621.94 481.31 622.08
  Q 476.63 622.32 473.79 625.42
  C 471.72 627.67 474.06 631.78 474.03 634.57
  Q 473.97 639.01 473.98 643.36
  C 473.98 645.80 474.96 647.86 474.98 650.22
  Q 475.02 655.96 474.99 661.88
  C 474.97 664.10 475.97 665.96 475.98 668.16
  Q 476.00 673.50 476.00 678.85
  Q 476.00 680.41 476.48 682.09
  Q 477.23 684.68 474.28 687.18
  C 469.78 690.99 463.86 692.19 458.97 694.85
  Q 454.34 697.37 450.68 698.60
  C 446.08 700.14 441.40 701.50 436.78 703.51
  Q 428.27 707.21 418.16 709.54
  Q 414.94 710.28 411.85 711.36
  C 409.03 712.35 406.02 712.83 403.15 713.75
  Q 396.78 715.79 390.28 717.64
  Q 388.92 718.03 387.67 717.98
  C 384.94 717.86 383.64 720.41 381.18 720.05
  Q 378.90 719.72 376.75 720.39
  C 372.37 721.74 367.60 720.49 363.06 721.42
  C 359.06 722.23 354.82 722.68 350.78 723.54
  C 347.29 724.28 343.91 723.56 340.58 724.56
  C 338.06 725.32 335.53 724.60 332.96 725.43
  Q 328.62 726.82 324.51 725.27
  C 322.00 724.32 320.34 726.25 317.89 726.02
  C 314.20 725.67 311.38 726.93 307.83 726.97
  Q 300.91 727.04 294.41 726.94
  C 292.07 726.91 290.04 725.98 287.75 725.99
  Q 259.14 726.03 228.05 725.98
  Q 225.77 725.98 223.67 725.36
  C 221.52 724.73 219.46 725.22 217.26 724.54
  Q 215.08 723.88 212.66 723.99
  C 210.40 724.10 208.44 722.88 206.36 723.01
  C 203.01 723.22 200.20 721.96 196.95 722.02
  C 194.08 722.07 191.74 720.77 188.87 720.99
  Q 185.63 721.25 182.77 720.41
  C 180.67 719.79 178.56 720.06 176.40 719.95
  Q 175.88 719.93 175.50 719.58
  C 173.50 717.76 170.89 718.11 168.42 717.30
  Q 159.22 714.28 151.48 712.78
  Q 145.61 711.65 139.57 709.79
  C 133.06 707.79 126.13 706.61 119.78 704.02
  Q 116.09 702.51 111.54 701.23
  Q 102.00 698.53 92.29 693.62
  A 2.40 2.40 0.0 0 1 90.97 691.46
  Q 91.01 684.62 91.00 677.20
  C 91.00 674.94 92.18 673.00 92.00 670.77
  Q 91.69 666.92 92.40 663.91
  Q 93.09 660.98 93.04 658.19
  Q 92.92 652.55 93.09 646.73
  C 93.15 644.75 93.98 643.04 93.98 641.03
  Q 93.98 634.26 94.03 627.48
  C 94.05 625.48 95.12 623.41 95.01 621.62
  Q 94.69 616.41 96.18 611.45
  Q 97.04 608.59 97.02 605.68
  Q 96.97 599.50 97.03 593.32
  C 97.05 591.14 97.99 589.28 97.99 587.12
  Q 97.99 580.78 98.01 574.26
  C 98.01 572.25 99.01 570.60 99.00 568.70
  Q 98.98 561.95 99.03 555.46
  C 99.04 552.41 100.03 549.65 100.09 546.60
  C 100.13 544.85 101.12 543.12 101.00 541.44
  Q 100.75 538.07 101.38 535.03
  C 102.47 529.74 102.00 523.90 102.01 518.54
  C 102.02 516.38 103.01 514.64 103.01 512.64
  Q 103.01 506.47 103.01 500.49
  C 103.01 497.69 103.69 495.33 104.61 492.76
  Q 105.13 491.28 105.02 489.83
  Q 104.71 485.72 105.37 482.08
  C 106.39 476.49 105.96 470.95 106.02 465.31
  C 106.04 463.31 107.01 461.63 107.00 459.74
  Q 106.99 453.48 107.02 447.32
  C 107.03 445.13 107.99 443.28 107.99 441.11
  Q 107.99 433.80 108.01 426.25
  C 108.01 424.27 109.01 422.63 109.00 420.76
  Q 109.00 415.04 109.00 409.15
  C 109.00 406.17 110.16 403.63 110.02 400.62
  C 109.93 398.39 111.13 396.36 111.00 394.27
  Q 110.74 390.28 111.43 386.80
  C 112.24 382.66 111.96 378.56 112.04 374.37
  C 112.08 372.14 113.16 370.13 113.00 368.01
  Q 112.77 364.84 113.37 362.04
  C 114.37 357.40 114.00 352.37 114.03 347.72
  C 114.04 345.24 115.22 343.04 115.03 340.66
  Q 114.69 336.45 115.38 333.05
  Q 116.06 329.71 116.04 326.49
  C 116.01 321.80 116.63 316.85 114.71 312.44
  C 113.61 309.91 111.45 310.32 109.46 309.13
  C 103.05 305.27 96.78 303.05 91.69 296.83
  Q 87.12 291.24 85.34 287.37
  Q 83.92 284.29 82.37 280.81
  C 80.68 276.99 80.15 273.19 79.30 269.16
  C 78.23 264.04 79.75 259.34 80.61 254.32
  Q 81.17 251.06 82.62 247.72
  Q 85.55 240.95 90.16 234.86
  Q 92.22 232.14 94.75 230.43
  C 97.30 228.70 99.02 225.88 101.94 224.64
  Q 108.07 222.05 113.24 220.08
  Q 115.00 219.41 116.68 218.41
  C 119.60 216.68 121.59 215.93 122.96 212.24
  C 124.51 208.08 126.12 204.12 128.93 200.49
  C 132.34 196.08 136.04 191.14 136.03 185.26
  Q 136.00 173.95 135.96 162.82
  C 135.95 158.55 137.75 154.86 137.93 150.70
  Q 138.05 147.85 138.89 144.48
  Q 140.05 139.81 140.96 134.76
  C 142.06 128.56 145.12 123.54 147.19 117.85
  C 150.14 109.72 154.66 102.00 159.38 94.69
  C 160.49 92.98 162.00 91.71 163.20 90.10
  C 165.43 87.12 167.17 83.89 170.01 81.29
  C 172.42 79.07 173.68 75.55 176.30 73.64
  C 179.72 71.16 182.36 67.96 185.80 65.44
  C 188.19 63.68 189.93 61.34 192.55 59.81
  C 196.14 57.71 199.33 55.06 202.98 52.91
  C 209.02 49.35 214.93 46.88 220.75 43.73
  C 226.01 40.88 232.45 39.67 237.99 37.61
  C 241.93 36.15 245.76 35.67 249.74 34.60
  C 252.13 33.96 254.42 34.17 256.76 33.57
  Q 259.23 32.94 261.75 32.96
  C 264.10 32.99 266.05 32.04 268.45 32.03
  Q 275.29 31.98 283.30 31.97
  Q 289.77 31.96 295.10 32.97
  Q 299.60 33.83 304.66 34.46
  Q 309.07 35.02 314.16 36.55
  Q 323.97 39.51 334.50 43.03
  Q 337.31 43.98 339.96 45.74
  C 343.99 48.43 349.04 49.13 352.69 52.43
  C 355.89 55.32 360.01 57.32 363.62 59.58
  C 365.16 60.53 366.25 62.00 367.74 63.10
  Q 372.77 66.79 376.96 71.39
  Q 378.31 72.87 379.74 73.90
  C 381.11 74.88 382.52 75.85 383.44 77.29
  C 384.91 79.60 386.88 81.39 388.57 83.51
  Q 391.43 87.10 394.16 90.63
  C 396.23 93.30 397.36 96.69 399.57 99.10
  C 403.37 103.23 404.74 108.61 407.44 113.51
  Q 410.48 119.05 412.88 126.91
  C 414.16 131.11 415.94 135.11 416.75 139.33
  Q 418.02 145.94 419.48 152.85
  Q 419.95 155.06 420.01 157.22
  C 420.08 159.28 420.99 160.97 420.98 162.98
  Q 420.95 174.13 421.05 184.69
  Q 421.07 187.71 420.38 190.52
  Q 419.69 193.32 419.99 196.48
  C 420.19 198.60 419.11 200.41 419.02 202.52
  C 418.89 205.16 418.04 207.94 417.24 210.47
  C 416.28 213.52 418.76 216.56 420.50 218.81
  C 423.58 222.82 430.60 220.95 434.13 218.67
  Z
  M 210.78 157.90
  C 215.55 138.65 227.65 123.01 245.12 113.48
  Q 259.77 105.49 278.33 104.98
  C 283.36 104.84 288.48 105.74 293.51 105.73
  Q 337.58 105.72 382.34 105.76
  C 383.86 105.76 385.38 106.07 386.92 106.06
  Q 387.55 106.06 387.48 105.44
  Q 387.31 103.89 386.19 102.27
  Q 358.10 61.33 311.21 48.51
  C 291.50 43.12 270.63 42.97 250.50 47.48
  C 219.76 54.36 192.34 72.70 173.76 98.32
  Q 172.90 99.50 173.64 100.74
  Q 189.28 127.06 205.94 155.08
  Q 207.27 157.31 209.41 158.50
  A 0.95 0.94 -68.5 0 0 210.78 157.90
  Z
  M 162.55 116.88
  C 156.76 126.96 152.96 138.96 150.39 150.28
  Q 148.73 157.56 148.38 165.26
  Q 148.03 172.90 147.33 180.75
  A 0.69 0.69 0.0 0 0 148.29 181.44
  Q 156.88 177.72 165.99 176.32
  C 169.46 175.80 172.90 176.07 176.36 175.97
  C 184.76 175.74 193.52 178.11 201.05 181.78
  Q 202.76 182.62 201.77 180.99
  L 162.87 116.87
  A 0.19 0.18 -45.9 0 0 162.55 116.88
  Z
  M 234.18 149.69
  C 229.26 158.26 227.18 170.33 228.11 180.01
  Q 230.06 200.54 245.23 214.16
  A 1.45 1.45 0.0 0 0 246.81 214.40
  Q 263.58 206.47 281.84 210.24
  Q 294.39 212.84 301.22 219.61
  C 302.78 221.17 304.67 220.82 306.34 219.70
  Q 325.88 206.52 329.90 184.10
  C 331.46 175.45 330.73 166.08 327.36 157.86
  Q 325.03 152.20 323.34 149.32
  C 313.42 132.39 295.41 122.24 275.76 123.49
  C 258.08 124.62 243.09 134.20 234.18 149.69
  Z
  M 392.39 188.85
  C 394.69 191.27 397.79 191.55 400.44 193.71
  Q 404.55 197.04 408.18 200.40
  Q 408.76 200.95 408.89 200.16
  Q 412.18 180.42 409.09 161.94
  C 406.97 149.28 404.08 137.87 399.34 126.48
  C 398.50 124.46 396.91 123.46 394.80 123.46
  Q 366.55 123.40 330.06 123.48
  A 1.39 1.38 24.3 0 0 329.15 123.82
  Q 328.17 124.68 328.97 125.50
  Q 342.11 138.97 346.57 156.48
  C 347.72 160.99 349.10 165.41 349.05 170.15
  Q 348.98 176.78 349.02 183.26
  Q 349.02 183.96 348.69 184.57
  Q 347.63 186.51 347.15 188.51
  Q 346.94 189.37 347.70 188.91
  Q 353.12 185.67 362.86 185.09
  C 369.76 184.68 377.26 183.95 383.53 186.16
  Q 387.21 187.46 390.95 188.08
  Q 391.80 188.22 392.39 188.85
  Z
  M 328.31 303.99
  Q 328.91 309.98 327.06 304.26
  Q 319.55 280.97 312.33 258.97
  Q 308.05 245.92 305.24 241.62
  C 291.18 220.17 262.94 215.44 242.83 231.56
  C 235.80 237.20 232.14 243.97 228.90 252.63
  Q 228.45 253.82 228.31 255.06
  A 1.73 1.72 -82.3 0 1 226.32 256.58
  L 215.72 254.91
  Q 213.93 254.63 214.58 252.94
  C 217.69 244.91 220.20 235.52 218.96 227.16
  Q 215.95 206.82 200.33 195.87
  C 186.09 185.89 167.43 185.17 152.15 194.19
  Q 138.65 202.17 132.88 217.90
  C 131.56 221.50 131.12 225.24 130.35 228.95
  A 0.93 0.93 0.0 0 1 129.45 229.69
  Q 126.80 229.73 124.28 229.86
  C 110.07 230.57 97.20 240.37 92.92 254.06
  Q 87.86 270.20 96.94 284.19
  Q 104.11 295.23 117.44 298.90
  C 121.58 300.04 125.75 299.76 129.83 301.11
  Q 150.72 308.02 179.14 313.50
  Q 244.22 326.04 306.29 324.21
  Q 310.45 324.09 314.59 324.28
  A 1.48 1.47 -7.0 0 1 315.93 325.32
  C 320.88 341.57 334.43 352.56 351.50 353.79
  C 372.97 355.33 393.66 337.45 393.07 315.19
  A 1.38 1.37 81.8 0 1 394.09 313.82
  Q 413.16 308.90 431.97 302.34
  C 436.55 300.73 440.54 298.08 445.45 297.81
  C 456.12 297.22 465.38 292.70 471.84 284.49
  C 482.33 271.13 482.05 253.33 471.24 240.23
  Q 462.20 229.27 447.56 227.71
  C 440.54 226.96 433.96 228.79 427.58 231.73
  C 424.18 233.29 420.44 234.07 416.83 235.03
  Q 414.80 235.57 414.24 233.52
  Q 406.87 206.87 382.16 199.15
  C 354.82 190.59 326.59 208.97 322.74 237.51
  Q 321.97 243.17 323.50 257.45
  Q 325.90 279.78 328.31 303.99
  Z
  M 400.09 340.34
  Q 397.42 343.99 395.04 347.08
  Q 387.33 357.10 376.04 362.23
  Q 357.17 370.82 338.39 364.80
  Q 317.57 358.14 306.85 338.08
  Q 306.61 337.64 306.10 337.64
  Q 270.71 338.06 261.01 337.20
  Q 243.42 335.63 225.72 334.15
  L 194.05 329.74
  L 164.79 324.05
  Q 146.29 320.13 140.48 318.27
  Q 134.50 316.36 128.42 314.42
  Q 127.95 314.26 127.91 314.76
  Q 124.05 368.13 120.60 421.52
  Q 119.96 431.47 119.22 441.47
  Q 115.90 486.56 111.93 545.74
  Q 107.60 610.19 102.64 680.00
  Q 102.45 682.57 102.89 685.01
  Q 102.98 685.51 103.44 685.71
  Q 114.68 690.39 126.34 693.89
  Q 170.81 707.25 217.01 712.17
  Q 234.77 714.06 244.50 714.56
  Q 255.44 715.12 260.00 715.52
  Q 266.44 716.10 305.16 715.58
  C 308.98 715.52 312.73 714.88 316.50 714.82
  C 325.27 714.69 334.47 713.53 342.91 712.61
  Q 385.98 707.90 427.24 694.53
  C 439.85 690.45 451.61 685.43 463.42 680.08
  A 2.31 2.31 0.0 0 0 464.77 677.79
  L 459.63 611.23
  Q 459.55 610.15 460.63 610.20
  Q 496.48 611.82 528.75 600.71
  C 535.36 598.44 541.47 595.25 547.01 591.45
  Q 550.22 589.24 553.33 585.74
  C 558.34 580.08 558.97 573.92 558.68 566.43
  Q 557.55 537.70 555.43 515.00
  Q 551.99 478.20 548.42 448.72
  Q 543.80 410.63 539.40 372.27
  Q 538.22 362.01 536.33 358.12
  C 529.81 344.74 513.18 342.22 499.83 342.09
  Q 488.22 341.97 472.57 343.47
  Q 458.11 344.85 440.56 346.40
  Q 439.11 346.53 439.00 345.08
  L 436.83 315.70
  A 0.89 0.88 -12.5 0 0 435.63 314.94
  Q 422.39 319.99 408.14 323.56
  C 406.51 323.97 405.53 324.63 405.09 326.38
  Q 403.21 333.80 400.09 340.34
  Z"
/>
<path fill="#ec5f50" d="
  M 245.12 113.48
  C 227.65 123.01 215.55 138.65 210.78 157.90
  A 0.95 0.94 -68.5 0 1 209.41 158.50
  Q 207.27 157.31 205.94 155.08
  Q 189.28 127.06 173.64 100.74
  Q 172.90 99.50 173.76 98.32
  C 192.34 72.70 219.76 54.36 250.50 47.48
  C 270.63 42.97 291.50 43.12 311.21 48.51
  Q 358.10 61.33 386.19 102.27
  Q 387.31 103.89 387.48 105.44
  Q 387.55 106.06 386.92 106.06
  C 385.38 106.07 383.86 105.76 382.34 105.76
  Q 337.58 105.72 293.51 105.73
  C 288.48 105.74 283.36 104.84 278.33 104.98
  Q 259.77 105.49 245.12 113.48
  Z"
/>
<path fill="#60bd5e" d="
  M 150.39 150.28
  C 152.96 138.96 156.76 126.96 162.55 116.88
  A 0.19 0.18 -45.9 0 1 162.87 116.87
  L 201.77 180.99
  Q 202.76 182.62 201.05 181.78
  C 193.52 178.11 184.76 175.74 176.36 175.97
  C 172.90 176.07 169.46 175.80 165.99 176.32
  Q 156.88 177.72 148.29 181.44
  A 0.69 0.69 0.0 0 1 147.33 180.75
  Q 148.03 172.90 148.38 165.26
  Q 148.73 157.56 150.39 150.28
  Z"
/>
<path fill="#338fc6" d="
  M 234.18 149.69
  C 243.09 134.20 258.08 124.62 275.76 123.49
  C 295.41 122.24 313.42 132.39 323.34 149.32
  Q 325.03 152.20 327.36 157.86
  C 330.73 166.08 331.46 175.45 329.90 184.10
  Q 325.88 206.52 306.34 219.70
  C 304.67 220.82 302.78 221.17 301.22 219.61
  Q 294.39 212.84 281.84 210.24
  Q 263.58 206.47 246.81 214.40
  A 1.45 1.45 0.0 0 1 245.23 214.16
  Q 230.06 200.54 228.11 180.01
  C 227.18 170.33 229.26 158.26 234.18 149.69
  Z"
/>
<path fill="#fcd830" d="
  M 390.95 188.08
  Q 387.21 187.46 383.53 186.16
  C 377.26 183.95 369.76 184.68 362.86 185.09
  Q 353.12 185.67 347.70 188.91
  Q 346.94 189.37 347.15 188.51
  Q 347.63 186.51 348.69 184.57
  Q 349.02 183.96 349.02 183.26
  Q 348.98 176.78 349.05 170.15
  C 349.10 165.41 347.72 160.99 346.57 156.48
  Q 342.11 138.97 328.97 125.50
  Q 328.17 124.68 329.15 123.82
  A 1.39 1.38 24.3 0 1 330.06 123.48
  Q 366.55 123.40 394.80 123.46
  C 396.91 123.46 398.50 124.46 399.34 126.48
  C 404.08 137.87 406.97 149.28 409.09 161.94
  Q 412.18 180.42 408.89 200.16
  Q 408.76 200.95 408.18 200.40
  Q 404.55 197.04 400.44 193.71
  C 397.79 191.55 394.69 191.27 392.39 188.85
  Q 391.80 188.22 390.95 188.08
  Z"
/>
<path fill="#fffffe" d="
  M 328.31 303.99
  Q 325.90 279.78 323.50 257.45
  Q 321.97 243.17 322.74 237.51
  C 326.59 208.97 354.82 190.59 382.16 199.15
  Q 406.87 206.87 414.24 233.52
  Q 414.80 235.57 416.83 235.03
  C 420.44 234.07 424.18 233.29 427.58 231.73
  C 433.96 228.79 440.54 226.96 447.56 227.71
  Q 462.20 229.27 471.24 240.23
  C 482.05 253.33 482.33 271.13 471.84 284.49
  C 465.38 292.70 456.12 297.22 445.45 297.81
  C 440.54 298.08 436.55 300.73 431.97 302.34
  Q 413.16 308.90 394.09 313.82
  A 1.38 1.37 81.8 0 0 393.07 315.19
  C 393.66 337.45 372.97 355.33 351.50 353.79
  C 334.43 352.56 320.88 341.57 315.93 325.32
  A 1.48 1.47 -7.0 0 0 314.59 324.28
  Q 310.45 324.09 306.29 324.21
  Q 244.22 326.04 179.14 313.50
  Q 150.72 308.02 129.83 301.11
  C 125.75 299.76 121.58 300.04 117.44 298.90
  Q 104.11 295.23 96.94 284.19
  Q 87.86 270.20 92.92 254.06
  C 97.20 240.37 110.07 230.57 124.28 229.86
  Q 126.80 229.73 129.45 229.69
  A 0.93 0.93 0.0 0 0 130.35 228.95
  C 131.12 225.24 131.56 221.50 132.88 217.90
  Q 138.65 202.17 152.15 194.19
  C 167.43 185.17 186.09 185.89 200.33 195.87
  Q 215.95 206.82 218.96 227.16
  C 220.20 235.52 217.69 244.91 214.58 252.94
  Q 213.93 254.63 215.72 254.91
  L 226.32 256.58
  A 1.73 1.72 -82.3 0 0 228.31 255.06
  Q 228.45 253.82 228.90 252.63
  C 232.14 243.97 235.80 237.20 242.83 231.56
  C 262.94 215.44 291.18 220.17 305.24 241.62
  Q 308.05 245.92 312.33 258.97
  Q 319.55 280.97 327.06 304.26
  Q 328.91 309.98 328.31 303.99
  Z"
/>
<path fill="#fffffe" d="
  M 164.79 324.05
  Q 163.02 353.45 160.88 382.43
  Q 160.26 390.87 159.85 399.08
  Q 159.43 407.48 158.73 415.72
  Q 157.64 428.66 156.97 444.05
  C 156.74 449.32 156.03 454.56 155.67 459.75
  Q 152.49 505.36 150.07 543.51
  Q 148.21 572.71 145.78 605.77
  Q 145.38 611.14 145.15 616.48
  C 144.87 623.05 143.88 629.55 143.63 636.32
  Q 143.44 641.14 142.84 645.41
  Q 142.57 647.38 144.36 648.25
  Q 153.12 652.47 162.69 655.40
  C 174.52 659.02 186.05 662.39 197.98 664.71
  Q 222.12 669.38 243.83 671.49
  Q 273.14 674.34 304.49 672.76
  Q 334.42 671.25 364.57 664.47
  C 376.20 661.86 388.65 658.11 399.64 653.97
  Q 410.54 649.87 421.49 644.26
  C 422.83 643.58 424.23 642.43 424.17 640.77
  Q 423.96 633.92 423.00 627.35
  C 422.29 622.52 422.50 617.64 421.88 612.82
  C 420.88 605.08 420.95 597.83 419.97 590.24
  C 419.30 585.00 419.44 579.71 418.90 574.47
  Q 418.22 567.86 418.04 562.54
  Q 417.89 558.11 417.36 554.14
  C 416.50 547.64 416.65 541.16 415.76 534.63
  C 415.05 529.42 415.35 524.21 414.63 518.97
  Q 413.83 513.15 413.52 507.21
  Q 413.26 502.23 412.63 497.26
  C 412.00 492.33 412.17 487.24 411.62 482.27
  Q 411.00 476.72 410.69 471.17
  C 410.31 464.44 409.28 457.68 409.18 450.88
  Q 409.11 446.04 408.37 441.07
  C 407.85 437.64 408.06 434.14 407.66 430.74
  Q 406.71 422.55 406.38 414.76
  C 406.11 408.24 405.10 402.16 404.71 395.64
  Q 404.43 390.85 403.84 385.91
  C 403.17 380.31 403.40 374.30 402.56 368.53
  Q 402.07 365.17 401.89 361.31
  Q 401.40 350.93 400.09 340.34
  Q 403.21 333.80 405.09 326.38
  C 405.53 324.63 406.51 323.97 408.14 323.56
  Q 422.39 319.99 435.63 314.94
  A 0.89 0.88 -12.5 0 1 436.83 315.70
  L 439.00 345.08
  Q 439.11 346.53 440.56 346.40
  Q 458.11 344.85 472.57 343.47
  Q 488.22 341.97 499.83 342.09
  C 513.18 342.22 529.81 344.74 536.33 358.12
  Q 538.22 362.01 539.40 372.27
  Q 543.80 410.63 548.42 448.72
  Q 551.99 478.20 555.43 515.00
  Q 557.55 537.70 558.68 566.43
  C 558.97 573.92 558.34 580.08 553.33 585.74
  Q 550.22 589.24 547.01 591.45
  C 541.47 595.25 535.36 598.44 528.75 600.71
  Q 496.48 611.82 460.63 610.20
  Q 459.55 610.15 459.63 611.23
  L 464.77 677.79
  A 2.31 2.31 0.0 0 1 463.42 680.08
  C 451.61 685.43 439.85 690.45 427.24 694.53
  Q 385.98 707.90 342.91 712.61
  C 334.47 713.53 325.27 714.69 316.50 714.82
  C 312.73 714.88 308.98 715.52 305.16 715.58
  Q 266.44 716.10 260.00 715.52
  Q 255.44 715.12 244.50 714.56
  Q 234.77 714.06 217.01 712.17
  Q 170.81 707.25 126.34 693.89
  Q 114.68 690.39 103.44 685.71
  Q 102.98 685.51 102.89 685.01
  Q 102.45 682.57 102.64 680.00
  Q 107.60 610.19 111.93 545.74
  Q 115.90 486.56 119.22 441.47
  Q 119.96 431.47 120.60 421.52
  Q 124.05 368.13 127.91 314.76
  Q 127.95 314.26 128.42 314.42
  Q 134.50 316.36 140.48 318.27
  Q 146.29 320.13 164.79 324.05
  Z
  M 504.32 379.39
  C 497.57 373.65 485.12 371.83 476.73 372.84
  Q 459.81 374.87 442.38 377.91
  A 1.10 1.10 0.0 0 0 441.49 379.18
  Q 441.79 380.86 441.94 382.51
  Q 444.32 409.97 446.54 442.02
  Q 447.28 452.79 448.02 461.98
  Q 452.62 519.82 457.05 578.42
  A 0.34 0.33 86.6 0 0 457.40 578.74
  Q 479.56 577.47 501.00 572.20
  C 508.94 570.25 518.15 566.71 524.35 561.18
  Q 529.44 556.63 529.01 549.27
  Q 528.00 532.12 526.39 516.49
  Q 520.85 462.43 512.75 395.16
  Q 511.60 385.56 504.32 379.39
  Z"
/>
<path fill="#f5b230" d="
  M 164.79 324.05
  L 194.05 329.74
  Q 194.11 338.05 193.66 342.00
  C 192.57 351.65 192.10 363.90 191.58 370.99
  Q 188.66 410.61 186.33 450.77
  C 185.51 464.98 184.26 480.08 183.38 494.78
  Q 182.82 504.16 181.99 514.73
  Q 181.02 527.18 180.29 539.65
  C 179.56 552.32 178.44 566.11 177.86 579.03
  C 177.43 588.69 176.31 598.11 176.11 607.89
  A 1.09 1.08 -84.1 0 0 176.99 608.98
  Q 179.91 609.53 182.65 609.61
  Q 194.95 610.00 206.49 611.17
  A 1.58 1.58 0.0 0 0 208.22 609.73
  Q 209.22 597.28 209.99 585.51
  Q 210.21 582.14 210.43 579.00
  Q 213.58 534.24 216.23 490.48
  Q 216.84 480.50 217.54 470.52
  Q 222.27 403.47 225.99 342.75
  Q 226.16 339.96 226.05 338.27
  Q 226.02 337.77 226.18 337.30
  Q 226.64 335.83 225.72 334.15
  Q 243.42 335.63 261.01 337.20
  Q 270.71 338.06 306.10 337.64
  Q 306.61 337.64 306.85 338.08
  Q 317.57 358.14 338.39 364.80
  Q 357.17 370.82 376.04 362.23
  Q 387.33 357.10 395.04 347.08
  Q 397.42 343.99 400.09 340.34
  Q 401.40 350.93 401.89 361.31
  Q 402.07 365.17 402.56 368.53
  C 403.40 374.30 403.17 380.31 403.84 385.91
  Q 404.43 390.85 404.71 395.64
  C 405.10 402.16 406.11 408.24 406.38 414.76
  Q 406.71 422.55 407.66 430.74
  C 408.06 434.14 407.85 437.64 408.37 441.07
  Q 409.11 446.04 409.18 450.88
  C 409.28 457.68 410.31 464.44 410.69 471.17
  Q 411.00 476.72 411.62 482.27
  C 412.17 487.24 412.00 492.33 412.63 497.26
  Q 413.26 502.23 413.52 507.21
  Q 413.83 513.15 414.63 518.97
  C 415.35 524.21 415.05 529.42 415.76 534.63
  C 416.65 541.16 416.50 547.64 417.36 554.14
  Q 417.89 558.11 418.04 562.54
  Q 418.22 567.86 418.90 574.47
  C 419.44 579.71 419.30 585.00 419.97 590.24
  C 420.95 597.83 420.88 605.08 421.88 612.82
  C 422.50 617.64 422.29 622.52 423.00 627.35
  Q 423.96 633.92 424.17 640.77
  C 424.23 642.43 422.83 643.58 421.49 644.26
  Q 410.54 649.87 399.64 653.97
  C 388.65 658.11 376.20 661.86 364.57 664.47
  Q 334.42 671.25 304.49 672.76
  Q 273.14 674.34 243.83 671.49
  Q 222.12 669.38 197.98 664.71
  C 186.05 662.39 174.52 659.02 162.69 655.40
  Q 153.12 652.47 144.36 648.25
  Q 142.57 647.38 142.84 645.41
  Q 143.44 641.14 143.63 636.32
  C 143.88 629.55 144.87 623.05 145.15 616.48
  Q 145.38 611.14 145.78 605.77
  Q 148.21 572.71 150.07 543.51
  Q 152.49 505.36 155.67 459.75
  C 156.03 454.56 156.74 449.32 156.97 444.05
  Q 157.64 428.66 158.73 415.72
  Q 159.43 407.48 159.85 399.08
  Q 160.26 390.87 160.88 382.43
  Q 163.02 353.45 164.79 324.05
  Z
  M 377.99 407.92
  A 31.24 31.24 0.0 0 0 346.75 376.68
  A 31.24 31.24 0.0 0 0 315.51 407.92
  A 31.24 31.24 0.0 0 0 346.75 439.16
  A 31.24 31.24 0.0 0 0 377.99 407.92
  Z"
/>
<path fill="#fbdd94" d="
  M 194.05 329.74
  L 225.72 334.15
  Q 226.64 335.83 226.18 337.30
  Q 226.02 337.77 226.05 338.27
  Q 226.16 339.96 225.99 342.75
  Q 222.27 403.47 217.54 470.52
  Q 216.84 480.50 216.23 490.48
  Q 213.58 534.24 210.43 579.00
  Q 210.21 582.14 209.99 585.51
  Q 209.22 597.28 208.22 609.73
  A 1.58 1.58 0.0 0 1 206.49 611.17
  Q 194.95 610.00 182.65 609.61
  Q 179.91 609.53 176.99 608.98
  A 1.09 1.08 -84.1 0 1 176.11 607.89
  C 176.31 598.11 177.43 588.69 177.86 579.03
  C 178.44 566.11 179.56 552.32 180.29 539.65
  Q 181.02 527.18 181.99 514.73
  Q 182.82 504.16 183.38 494.78
  C 184.26 480.08 185.51 464.98 186.33 450.77
  Q 188.66 410.61 191.58 370.99
  C 192.10 363.90 192.57 351.65 193.66 342.00
  Q 194.11 338.05 194.05 329.74
  Z"
/>
<path fill="#000000" d="
  M 504.32 379.39
  Q 511.60 385.56 512.75 395.16
  Q 520.85 462.43 526.39 516.49
  Q 528.00 532.12 529.01 549.27
  Q 529.44 556.63 524.35 561.18
  C 518.15 566.71 508.94 570.25 501.00 572.20
  Q 479.56 577.47 457.40 578.74
  A 0.34 0.33 86.6 0 1 457.05 578.42
  Q 452.62 519.82 448.02 461.98
  Q 447.28 452.79 446.54 442.02
  Q 444.32 409.97 441.94 382.51
  Q 441.79 380.86 441.49 379.18
  A 1.10 1.10 0.0 0 1 442.38 377.91
  Q 459.81 374.87 476.73 372.84
  C 485.12 371.83 497.57 373.65 504.32 379.39
  Z
  M 456.93 420.08
  Q 457.03 423.79 456.97 427.27
  C 456.94 429.35 457.95 431.17 457.97 433.32
  Q 458.00 439.45 457.99 445.80
  C 457.98 449.20 459.28 452.16 459.01 455.66
  C 458.93 456.76 459.49 457.96 459.71 459.04
  C 460.40 462.28 459.98 466.49 460.04 469.73
  C 460.07 471.50 460.97 473.02 460.97 474.86
  Q 461.00 482.25 461.01 489.66
  C 461.02 491.55 461.95 493.22 461.96 495.21
  Q 461.99 499.50 461.97 503.80
  C 461.97 506.31 463.03 508.47 463.01 511.08
  Q 462.98 516.97 462.99 523.02
  C 463.00 525.07 463.73 526.84 464.35 528.75
  C 465.29 531.63 464.68 534.39 465.52 537.26
  C 466.35 540.11 465.63 542.92 466.43 545.75
  C 467.63 550.01 466.45 554.26 467.54 558.60
  C 468.23 561.38 469.08 566.18 472.96 566.05
  C 476.10 565.95 479.13 566.39 482.12 565.19
  C 484.91 564.08 487.75 563.97 490.63 563.04
  C 494.69 561.72 498.91 560.91 503.04 559.61
  C 508.65 557.85 512.77 556.07 516.02 550.76
  Q 517.16 548.90 517.08 546.70
  Q 516.89 540.69 517.04 535.15
  Q 517.12 532.26 516.41 529.19
  C 515.59 525.63 516.39 522.03 515.32 518.24
  C 514.63 515.83 515.32 513.57 514.57 511.13
  C 513.68 508.22 514.00 505.01 514.00 501.97
  C 514.00 499.63 512.90 497.70 512.96 495.33
  Q 513.03 492.76 513.01 490.11
  C 512.99 487.92 512.09 486.10 512.01 483.92
  C 511.90 480.73 510.99 477.44 510.38 474.27
  C 509.62 470.35 510.45 466.73 509.24 462.87
  C 508.84 461.57 509.02 460.11 509.01 458.76
  C 508.99 456.45 507.92 454.52 507.94 452.09
  C 507.95 450.44 507.04 448.95 507.02 447.22
  Q 506.97 444.02 507.02 440.68
  C 507.04 439.36 506.62 438.35 506.32 437.11
  C 505.47 433.69 506.62 430.13 505.45 426.76
  C 504.60 424.30 505.25 421.83 504.60 419.29
  C 503.61 415.47 504.44 411.74 503.53 407.80
  Q 503.14 406.10 502.93 403.84
  Q 502.68 401.21 500.60 395.42
  C 499.48 392.31 494.66 384.96 490.06 384.98
  Q 479.49 385.04 467.84 384.95
  C 465.99 384.93 464.70 385.79 462.97 385.89
  C 460.35 386.03 458.15 387.22 455.93 388.43
  Q 455.45 388.70 455.29 389.22
  C 454.71 391.11 453.93 392.83 453.94 394.84
  Q 453.99 400.74 453.96 406.70
  C 453.94 409.78 455.01 412.47 455.16 415.53
  C 455.25 417.29 456.89 418.24 456.93 420.08
  Z"
/>
<path fill="#000000" d="
  M 377.99 407.92
  A 31.24 31.24 0.0 0 1 346.75 439.16
  A 31.24 31.24 0.0 0 1 315.51 407.92
  A 31.24 31.24 0.0 0 1 346.75 376.68
  A 31.24 31.24 0.0 0 1 377.99 407.92
  Z
  M 364.81 407.92
  A 18.06 18.06 0.0 0 0 346.75 389.86
  A 18.06 18.06 0.0 0 0 328.69 407.92
  A 18.06 18.06 0.0 0 0 346.75 425.98
  A 18.06 18.06 0.0 0 0 364.81 407.92
  Z"
/>
<circle fill="#fffffe" cx="346.75" cy="407.92" r="18.06"/>
</svg>
